<svg width="244" height="180" viewBox="0 0 244 180" fill="none" xmlns="http://www.w3.org/2000/svg">
<g id="Group 1060" opacity="0.8">
<path id="Vector" d="M129.565 162.455C174.306 162.455 210.575 126.088 210.575 81.2273C210.575 36.3667 174.306 0 129.565 0C84.8249 0 48.5557 36.3667 48.5557 81.2273C48.5557 126.088 84.8249 162.455 129.565 162.455Z" fill="#CCE8FF"/>
<path id="Vector_2" d="M243.868 71.7158V62.9439C243.868 61.2712 243.205 59.667 242.025 58.4842C240.846 57.3014 239.246 56.6369 237.578 56.6369H210.545C209.719 56.6369 208.901 56.4738 208.138 56.1568C207.375 55.8399 206.681 55.3753 206.097 54.7896C205.513 54.204 205.05 53.5087 204.734 52.7435C204.418 51.9783 204.255 51.1582 204.255 50.3299V41.5581C204.255 39.8854 204.918 38.2811 206.097 37.0984C207.277 35.9156 208.877 35.2511 210.545 35.2511H220.908C222.576 35.2511 224.176 34.5866 225.355 33.4038C226.535 32.221 227.198 30.6168 227.198 28.9441V20.1722C227.198 18.4995 226.535 16.8953 225.355 15.7125C224.176 14.5297 222.576 13.8652 220.908 13.8652H35.4451C33.7769 13.8652 32.177 14.5297 30.9974 15.7125C29.8178 16.8953 29.1551 18.4995 29.1551 20.1722V28.9441C29.1551 30.6168 29.8178 32.221 30.9974 33.4038C32.177 34.5866 33.7769 35.2511 35.4451 35.2511C37.1134 35.2511 38.7133 35.9156 39.8929 37.0984C41.0725 38.2811 41.7352 39.8854 41.7352 41.5581V50.3299C41.7352 52.0027 41.0725 53.6069 39.8929 54.7896C38.7133 55.9724 37.1134 56.6369 35.4451 56.6369H6.29008C4.62185 56.6369 3.02194 57.3014 1.84232 58.4842C0.662705 59.667 0 61.2712 0 62.9439V71.7158C2.5624e-06 73.3885 0.662709 74.9927 1.84233 76.1755C3.02195 77.3583 4.62185 78.0228 6.29008 78.0228H35.1576C35.9837 78.0228 36.8016 78.1859 37.5648 78.5028C38.3279 78.8198 39.0213 79.2844 39.6054 79.87C40.1895 80.4557 40.6528 81.151 40.9689 81.9162C41.2851 82.6814 41.4478 83.5015 41.4477 84.3298V93.1017C41.6019 101.128 24.1393 99.4087 20.6654 99.4087H20.6423C18.9741 99.4087 17.3742 100.073 16.1945 101.256C15.0149 102.439 14.3522 104.043 14.3522 105.716V114.487C14.3522 116.16 15.0149 117.764 16.1945 118.947C17.3742 120.13 18.9741 120.794 20.6423 120.794H36.5155C38.1837 120.794 39.7836 121.459 40.9632 122.642C42.1429 123.825 42.8056 125.429 42.8056 127.101V135.873C42.8056 137.546 42.1429 139.15 40.9632 140.333C39.7836 141.516 38.1837 142.18 36.5155 142.18H18.6834C17.0152 142.18 15.4153 142.845 14.2357 144.028C13.0561 145.21 12.3934 146.815 12.3934 148.487V157.259C12.3934 158.932 13.0561 160.536 14.2357 161.719C15.4153 162.902 17.0152 163.566 18.6834 163.566H219.454C221.122 163.566 222.722 162.902 223.902 161.719C225.081 160.536 225.744 158.932 225.744 157.259V148.487C225.744 146.815 225.081 145.21 223.902 144.028C222.722 142.845 221.122 142.18 219.454 142.18H209.169C207.501 142.18 205.901 141.516 204.722 140.333C203.542 139.15 202.879 137.546 202.879 135.873V127.101C202.879 125.429 203.542 123.825 204.722 122.642C205.901 121.459 207.501 120.794 209.169 120.794H226.86C228.528 120.794 230.128 120.13 231.307 118.947C232.487 117.764 233.15 116.16 233.15 114.487V105.716C233.15 104.043 232.487 102.439 231.307 101.256C230.128 100.073 228.528 99.4087 226.86 99.4087H218.128C216.46 99.4087 214.86 98.7442 213.68 97.5614C212.5 96.3786 211.838 94.7744 211.838 93.1017V84.3298C211.838 83.5015 212 82.6814 212.317 81.9162C212.633 81.151 213.096 80.4557 213.68 79.87C214.264 79.2844 214.958 78.8198 215.721 78.5028C216.484 78.1859 217.302 78.0228 218.128 78.0228H237.578C239.246 78.0228 240.846 77.3583 242.025 76.1755C243.205 74.9927 243.868 73.3885 243.868 71.7158Z" fill="#CCE8FF"/>
<path id="Vector_3" d="M130.873 58.0325C143.402 58.0325 153.558 47.8489 153.558 35.2868C153.558 22.7246 143.402 12.541 130.873 12.541C118.345 12.541 108.188 22.7246 108.188 35.2868C108.188 47.8489 118.345 58.0325 130.873 58.0325Z" fill="#66BBFF"/>
<path id="Vector_4" d="M122.842 30.5506C122.842 30.5224 122.842 30.4943 122.842 30.4661C122.842 28.8784 123.31 27.326 124.187 26.0043C125.065 24.6825 126.312 23.6502 127.773 23.0373C129.234 22.4244 130.843 22.2581 132.397 22.5594C133.952 22.8607 135.383 23.6161 136.511 24.7306C137.639 25.8452 138.413 27.2691 138.736 28.8235C139.059 30.3779 138.916 31.9934 138.326 33.4668C137.736 34.9402 136.725 36.2059 135.42 37.1047C134.114 38.0035 132.573 38.4953 130.99 38.5183V45.8309" stroke="#00589E" stroke-width="4" stroke-linecap="round" stroke-linejoin="round"/>
<path id="Vector_5" d="M169.031 19.9756H184.636" stroke="#0074D1" stroke-width="3" stroke-miterlimit="10" stroke-linecap="round"/>
<path id="Vector_6" d="M169.031 24.4854H184.636" stroke="#0074D1" stroke-width="3" stroke-miterlimit="10" stroke-linecap="round"/>
<path id="Vector_7" d="M169.031 28.9951H184.636" stroke="#0074D1" stroke-width="3" stroke-miterlimit="10" stroke-linecap="round"/>
<path id="Vector_8" d="M23.8604 105.624H39.4652" stroke="#0074D1" stroke-width="3" stroke-miterlimit="10" stroke-linecap="round"/>
<path id="Vector_9" d="M23.8604 110.134H39.4652" stroke="#0074D1" stroke-width="3" stroke-miterlimit="10" stroke-linecap="round"/>
<path id="Vector_10" d="M23.8604 114.644H39.4652" stroke="#0074D1" stroke-width="3" stroke-miterlimit="10" stroke-linecap="round"/>
<path id="Vector_11" d="M198.969 137.783H214.574" stroke="#0074D1" stroke-width="3" stroke-miterlimit="10" stroke-linecap="round"/>
<path id="Vector_12" d="M198.969 142.294H214.574" stroke="#0074D1" stroke-width="3" stroke-miterlimit="10" stroke-linecap="round"/>
<path id="Vector_13" d="M198.969 146.803H214.574" stroke="#0074D1" stroke-width="3" stroke-miterlimit="10" stroke-linecap="round"/>
<path id="Vector_14" d="M217.778 115.574C221.462 115.574 224.448 112.58 224.448 108.886C224.448 105.192 221.462 102.198 217.778 102.198C214.095 102.198 211.108 105.192 211.108 108.886C211.108 112.58 214.095 115.574 217.778 115.574Z" fill="#CCE8FF"/>
<path id="Vector_15" d="M200.177 117.18C202.087 117.18 203.635 115.628 203.635 113.713C203.635 111.798 202.087 110.245 200.177 110.245C198.267 110.245 196.719 111.798 196.719 113.713C196.719 115.628 198.267 117.18 200.177 117.18Z" fill="#CCE8FF"/>
<path id="Vector_16" d="M208.959 97.4758C211.688 97.4758 213.9 95.2577 213.9 92.5216C213.9 89.7854 211.688 87.5674 208.959 87.5674C206.231 87.5674 204.019 89.7854 204.019 92.5216C204.019 95.2577 206.231 97.4758 208.959 97.4758Z" fill="#CCE8FF"/>
<path id="Vector_17" d="M66.0034 160.039C70.3863 160.039 73.9394 156.476 73.9394 152.081C73.9394 147.687 70.3863 144.124 66.0034 144.124C61.6204 144.124 58.0674 147.687 58.0674 152.081C58.0674 156.476 61.6204 160.039 66.0034 160.039Z" fill="#CCE8FF"/>
<path id="Vector_18" d="M50.8388 150.559C53.1217 150.559 54.9725 148.703 54.9725 146.414C54.9725 144.125 53.1217 142.27 50.8388 142.27C48.5558 142.27 46.7051 144.125 46.7051 146.414C46.7051 148.703 48.5558 150.559 50.8388 150.559Z" fill="#CCE8FF"/>
<path id="Vector_19" d="M54.6354 134.715C55.9523 134.715 57.0199 133.645 57.0199 132.324C57.0199 131.004 55.9523 129.934 54.6354 129.934C53.3185 129.934 52.251 131.004 52.251 132.324C52.251 133.645 53.3185 134.715 54.6354 134.715Z" fill="#CCE8FF"/>
<path id="Vector_20" d="M67.8354 139.747C70.9924 139.747 73.5516 137.181 73.5516 134.016C73.5516 130.85 70.9924 128.284 67.8354 128.284C64.6784 128.284 62.1191 130.85 62.1191 134.016C62.1191 137.181 64.6784 139.747 67.8354 139.747Z" fill="#CCE8FF"/>
<path id="Vector_21" d="M71.8149 40.5845C76.1978 40.5845 79.7509 37.0219 79.7509 32.6272C79.7509 28.2325 76.1978 24.6699 71.8149 24.6699C67.432 24.6699 63.8789 28.2325 63.8789 32.6272C63.8789 37.0219 67.432 40.5845 71.8149 40.5845Z" fill="#CCE8FF"/>
<path id="Vector_22" d="M72.1376 20.5474C74.4206 20.5474 76.2713 18.6917 76.2713 16.4026C76.2713 14.1135 74.4206 12.2578 72.1376 12.2578C69.8546 12.2578 68.0039 14.1135 68.0039 16.4026C68.0039 18.6917 69.8546 20.5474 72.1376 20.5474Z" fill="#CCE8FF"/>
<path id="Vector_23" d="M99.6704 22.4119C101.646 22.4119 103.248 20.8058 103.248 18.8246C103.248 16.8434 101.646 15.2373 99.6704 15.2373C97.6946 15.2373 96.0928 16.8434 96.0928 18.8246C96.0928 20.8058 97.6946 22.4119 99.6704 22.4119Z" fill="#CCE8FF"/>
<path id="Vector_24" d="M86.654 17.73C87.9709 17.73 89.0385 16.6596 89.0385 15.3391C89.0385 14.0187 87.9709 12.9482 86.654 12.9482C85.3371 12.9482 84.2695 14.0187 84.2695 15.3391C84.2695 16.6596 85.3371 17.73 86.654 17.73Z" fill="#CCE8FF"/>
<path id="Vector_25" d="M89.4252 34.1214C92.5822 34.1214 95.1415 31.5553 95.1415 28.3898C95.1415 25.2243 92.5822 22.6582 89.4252 22.6582C86.2682 22.6582 83.709 25.2243 83.709 28.3898C83.709 31.5553 86.2682 34.1214 89.4252 34.1214Z" fill="#CCE8FF"/>
<path id="Vector_26" d="M198.591 76.3097H64.1815L59.7988 65.1689H198.591C198.764 65.1689 198.935 65.203 199.094 65.2693C199.254 65.3356 199.399 65.4327 199.521 65.5551C199.643 65.6775 199.74 65.8228 199.806 65.9828C199.872 66.1427 199.906 66.3142 199.906 66.4873V74.9914C199.906 75.1645 199.872 75.3359 199.806 75.4959C199.74 75.6558 199.643 75.8012 199.521 75.9236C199.399 76.046 199.254 76.1431 199.094 76.2094C198.935 76.2756 198.764 76.3097 198.591 76.3097Z" fill="#00589E"/>
<path id="Vector_27" d="M179.01 134.845H87.6134C87.1674 134.845 86.7321 134.709 86.3655 134.454C85.9989 134.2 85.7185 133.839 85.5618 133.42L64.1816 76.3105H193.91L181.147 133.131C181.038 133.618 180.767 134.052 180.378 134.364C179.99 134.676 179.507 134.845 179.01 134.845Z" fill="#66BBFF"/>
<path id="Vector_28" d="M187.337 105.579C177.987 106.181 168.637 106.495 159.287 106.709C154.612 106.843 149.937 106.872 145.262 106.951L131.237 107.031C121.887 107.04 112.538 106.934 103.188 106.713C93.8376 106.5 84.4876 106.184 75.1377 105.579C84.4876 104.974 93.8376 104.658 103.188 104.445C112.537 104.235 121.887 104.129 131.237 104.127L145.262 104.207C149.937 104.286 154.612 104.316 159.287 104.45C168.637 104.663 177.987 104.978 187.337 105.579Z" fill="#0074D1"/>
<path id="Vector_29" d="M169.048 76.3105C168.516 81.4187 167.702 86.4633 166.803 91.4887C165.893 96.5116 164.877 101.511 163.756 106.486C162.64 111.462 161.422 116.415 160.101 121.346C159.434 123.809 158.744 126.267 158.007 128.715C157.625 129.936 157.262 131.161 156.866 132.379L156.561 133.304C156.441 133.644 156.246 133.951 155.99 134.204C155.75 134.442 155.46 134.624 155.141 134.735C154.822 134.846 154.483 134.883 154.148 134.845C154.45 134.81 154.742 134.708 155.002 134.549C155.262 134.389 155.485 134.175 155.655 133.921C155.813 133.687 155.918 133.421 155.96 133.141L156.082 132.202C156.245 130.932 156.441 129.669 156.618 128.402C156.999 125.873 157.426 123.356 157.877 120.843C158.788 115.821 159.805 110.822 160.929 105.847C162.048 100.872 163.268 95.9187 164.587 90.9883C165.924 86.0618 167.346 81.1544 169.048 76.3105ZM116.819 134.845C116.47 134.883 116.117 134.839 115.788 134.717C115.459 134.594 115.163 134.396 114.924 134.139C114.689 133.868 114.5 133.56 114.365 133.228L113.932 132.328C113.355 131.129 112.811 129.917 112.249 128.712C111.149 126.292 110.093 123.856 109.059 121.412C107.001 116.52 105.044 111.59 103.188 106.622C101.326 101.656 99.5633 96.6528 97.8991 91.6125C96.249 86.5669 94.682 81.49 93.3877 76.3105C95.8122 81.0647 97.964 85.9214 100.033 90.8095C102.091 95.7015 104.047 100.632 105.901 105.601C107.758 110.568 109.52 115.572 111.186 120.612C112.011 123.134 112.815 125.665 113.574 128.213C113.942 129.491 114.328 130.763 114.68 132.046L114.944 133.01C115.005 133.312 115.114 133.602 115.267 133.87C115.436 134.139 115.663 134.366 115.932 134.535C116.201 134.704 116.504 134.81 116.819 134.845Z" fill="#0074D1"/>
<path id="Vector_30" d="M110.307 179.752C115.308 179.752 119.362 175.687 119.362 170.673C119.362 165.659 115.308 161.595 110.307 161.595C105.307 161.595 101.253 165.659 101.253 170.673C101.253 175.687 105.307 179.752 110.307 179.752Z" fill="#00589E"/>
<path id="Vector_31" d="M110.307 174.864C112.615 174.864 114.486 172.988 114.486 170.674C114.486 168.359 112.615 166.483 110.307 166.483C107.999 166.483 106.128 168.359 106.128 170.674C106.128 172.988 107.999 174.864 110.307 174.864Z" fill="#CCE8FF"/>
<path id="Vector_32" d="M162.538 179.752C167.538 179.752 171.592 175.687 171.592 170.673C171.592 165.659 167.538 161.595 162.538 161.595C157.537 161.595 153.483 165.659 153.483 170.673C153.483 175.687 157.537 179.752 162.538 179.752Z" fill="#00589E"/>
<path id="Vector_33" d="M162.537 174.864C164.846 174.864 166.717 172.988 166.717 170.674C166.717 168.359 164.846 166.483 162.537 166.483C160.229 166.483 158.358 168.359 158.358 170.674C158.358 172.988 160.229 174.864 162.537 174.864Z" fill="#CCE8FF"/>
<path id="Vector_34" d="M132.04 76.3105C132.928 81.1527 133.529 86.012 134.043 90.8766C134.545 95.7418 134.939 100.613 135.225 105.492C135.517 110.369 135.704 115.253 135.786 120.144C135.852 125.035 135.83 129.931 135.518 134.845C134.625 130.004 134.024 125.144 133.511 120.28C133.009 115.414 132.616 110.543 132.332 105.664C132.044 100.786 131.859 95.9023 131.776 91.012C131.71 86.1207 131.731 81.2242 132.04 76.3105Z" fill="#0074D1"/>
<path id="Vector_35" d="M177.858 156.986H95.9502C95.6571 156.986 95.3708 156.897 95.1292 156.731C94.8876 156.564 94.7021 156.328 94.5971 156.054L47.1598 32.0645H22.0332C21.6489 32.0645 21.2802 31.9114 21.0085 31.6388C20.7367 31.3663 20.584 30.9967 20.584 30.6113C20.584 30.2259 20.7367 29.8563 21.0085 29.5838C21.2802 29.3113 21.6489 29.1582 22.0332 29.1582H48.156C48.4492 29.1582 48.7355 29.2474 48.9771 29.4139C49.2186 29.5805 49.4042 29.8165 49.5091 30.091L96.9464 154.08H177.858C178.242 154.08 178.611 154.233 178.882 154.506C179.154 154.778 179.307 155.148 179.307 155.533C179.307 155.919 179.154 156.288 178.882 156.561C178.611 156.833 178.242 156.986 177.858 156.986Z" fill="#00589E"/>
<path id="Vector_36" d="M34.6354 26.4219H17.4378C16.9042 26.4219 16.4717 26.8556 16.4717 27.3906V34.3463C16.4717 34.8813 16.9042 35.315 17.4378 35.315H34.6354C35.169 35.315 35.6015 34.8813 35.6015 34.3463V27.3906C35.6015 26.8556 35.169 26.4219 34.6354 26.4219Z" fill="#00589E"/>
<path id="Vector_37" d="M130.873 51.6342C131.593 51.6342 132.177 51.0487 132.177 50.3264C132.177 49.6041 131.593 49.0186 130.873 49.0186C130.152 49.0186 129.568 49.6041 129.568 50.3264C129.568 51.0487 130.152 51.6342 130.873 51.6342Z" fill="#0074D1"/>
</g>
</svg>
