<svg width="57" height="77" viewBox="0 0 57 77" fill="none" xmlns="http://www.w3.org/2000/svg">
<g clip-path="url(#clip0_1018_8133)">
<rect width="57" height="57" rx="28.5" fill="#0590FF"/>
<g filter="url(#filter0_f_1018_8133)">
<circle cx="17" cy="45" r="27" fill="white" fill-opacity="0.5"/>
</g>
<path d="M37.25 20V35C37.25 35.1989 37.171 35.3897 37.0303 35.5303C36.8897 35.671 36.6989 35.75 36.5 35.75H23.75C23.3522 35.75 22.9706 35.908 22.6893 36.1893C22.408 36.4706 22.25 36.8522 22.25 37.25H35C35.1989 37.25 35.3897 37.329 35.5303 37.4697C35.671 37.6103 35.75 37.8011 35.75 38C35.75 38.1989 35.671 38.3897 35.5303 38.5303C35.3897 38.671 35.1989 38.75 35 38.75H21.5C21.3011 38.75 21.1103 38.671 20.9697 38.5303C20.829 38.3897 20.75 38.1989 20.75 38V22.25C20.75 21.4544 21.0661 20.6913 21.6287 20.1287C22.1913 19.5661 22.9544 19.25 23.75 19.25H36.5C36.6989 19.25 36.8897 19.329 37.0303 19.4697C37.171 19.6103 37.25 19.8011 37.25 20Z" fill="white"/>
<g filter="url(#filter1_f_1018_8133)">
<rect x="-7.30176" y="-50" width="8" height="67.8758" transform="rotate(32.7288 -7.30176 -50)" fill="#FAFAFA"/>
</g>
</g>
<path d="M2.09156 73C1.82756 73 1.62356 72.932 1.47956 72.796C1.34356 72.652 1.27556 72.448 1.27556 72.184V65.356C1.27556 65.092 1.34356 64.892 1.47956 64.756C1.62356 64.612 1.82756 64.54 2.09156 64.54H4.97156C5.56356 64.54 6.06756 64.628 6.48356 64.804C6.89956 64.98 7.21556 65.232 7.43156 65.56C7.65556 65.888 7.76756 66.28 7.76756 66.736C7.76756 67.248 7.61956 67.68 7.32356 68.032C7.02756 68.384 6.62356 68.62 6.11156 68.74V68.56C6.70356 68.648 7.16356 68.872 7.49156 69.232C7.81956 69.592 7.98356 70.06 7.98356 70.636C7.98356 71.388 7.72756 71.972 7.21556 72.388C6.71156 72.796 6.00756 73 5.10356 73H2.09156ZM2.75156 71.836H4.91156C5.45556 71.836 5.85556 71.732 6.11156 71.524C6.36756 71.308 6.49556 70.988 6.49556 70.564C6.49556 70.132 6.36756 69.812 6.11156 69.604C5.85556 69.396 5.45556 69.292 4.91156 69.292H2.75156V71.836ZM2.75156 68.128H4.70756C5.23556 68.128 5.62756 68.028 5.88356 67.828C6.14756 67.62 6.27956 67.316 6.27956 66.916C6.27956 66.516 6.14756 66.216 5.88356 66.016C5.62756 65.808 5.23556 65.704 4.70756 65.704H2.75156V68.128ZM12.0693 73.12C11.4613 73.12 10.9333 72.996 10.4853 72.748C10.0373 72.5 9.68928 72.148 9.44128 71.692C9.19328 71.228 9.06928 70.684 9.06928 70.06C9.06928 69.588 9.13728 69.168 9.27328 68.8C9.41728 68.424 9.62128 68.104 9.88528 67.84C10.1493 67.568 10.4653 67.364 10.8333 67.228C11.2013 67.084 11.6133 67.012 12.0693 67.012C12.6773 67.012 13.2053 67.136 13.6533 67.384C14.1013 67.632 14.4493 67.984 14.6973 68.44C14.9453 68.896 15.0693 69.436 15.0693 70.06C15.0693 70.532 14.9973 70.956 14.8533 71.332C14.7173 71.708 14.5173 72.032 14.2533 72.304C13.9893 72.568 13.6733 72.772 13.3053 72.916C12.9373 73.052 12.5253 73.12 12.0693 73.12ZM12.0693 71.98C12.3653 71.98 12.6253 71.908 12.8493 71.764C13.0733 71.62 13.2453 71.408 13.3653 71.128C13.4933 70.84 13.5573 70.484 13.5573 70.06C13.5573 69.42 13.4213 68.944 13.1493 68.632C12.8773 68.312 12.5173 68.152 12.0693 68.152C11.7733 68.152 11.5133 68.224 11.2893 68.368C11.0653 68.504 10.8893 68.716 10.7613 69.004C10.6413 69.284 10.5813 69.636 10.5813 70.06C10.5813 70.692 10.7173 71.172 10.9893 71.5C11.2613 71.82 11.6213 71.98 12.0693 71.98ZM18.9833 73.12C18.3753 73.12 17.8473 72.996 17.3993 72.748C16.9513 72.5 16.6033 72.148 16.3553 71.692C16.1073 71.228 15.9833 70.684 15.9833 70.06C15.9833 69.588 16.0513 69.168 16.1873 68.8C16.3313 68.424 16.5353 68.104 16.7993 67.84C17.0633 67.568 17.3793 67.364 17.7473 67.228C18.1153 67.084 18.5273 67.012 18.9833 67.012C19.5913 67.012 20.1193 67.136 20.5673 67.384C21.0153 67.632 21.3633 67.984 21.6113 68.44C21.8593 68.896 21.9833 69.436 21.9833 70.06C21.9833 70.532 21.9113 70.956 21.7673 71.332C21.6313 71.708 21.4313 72.032 21.1673 72.304C20.9033 72.568 20.5873 72.772 20.2193 72.916C19.8513 73.052 19.4393 73.12 18.9833 73.12ZM18.9833 71.98C19.2793 71.98 19.5393 71.908 19.7633 71.764C19.9873 71.62 20.1593 71.408 20.2793 71.128C20.4073 70.84 20.4713 70.484 20.4713 70.06C20.4713 69.42 20.3353 68.944 20.0633 68.632C19.7913 68.312 19.4313 68.152 18.9833 68.152C18.6873 68.152 18.4273 68.224 18.2033 68.368C17.9793 68.504 17.8033 68.716 17.6753 69.004C17.5553 69.284 17.4953 69.636 17.4953 70.06C17.4953 70.692 17.6313 71.172 17.9033 71.5C18.1753 71.82 18.5353 71.98 18.9833 71.98ZM23.9654 73.096C23.7254 73.096 23.5414 73.032 23.4134 72.904C23.2854 72.768 23.2214 72.576 23.2214 72.328V65.2C23.2214 64.952 23.2854 64.764 23.4134 64.636C23.5414 64.508 23.7254 64.444 23.9654 64.444C24.2054 64.444 24.3894 64.508 24.5174 64.636C24.6534 64.764 24.7214 64.952 24.7214 65.2V69.628H24.7454L26.7254 67.54C26.8854 67.38 27.0254 67.256 27.1454 67.168C27.2654 67.08 27.4294 67.036 27.6374 67.036C27.8454 67.036 28.0014 67.092 28.1054 67.204C28.2174 67.308 28.2734 67.436 28.2734 67.588C28.2734 67.74 28.2014 67.892 28.0574 68.044L25.9694 70.252V69.628L28.2614 72.1C28.4054 72.252 28.4694 72.408 28.4534 72.568C28.4454 72.72 28.3814 72.848 28.2614 72.952C28.1414 73.048 27.9894 73.096 27.8054 73.096C27.5814 73.096 27.4014 73.052 27.2654 72.964C27.1374 72.876 26.9934 72.744 26.8334 72.568L24.7454 70.384H24.7214V72.328C24.7214 72.84 24.4694 73.096 23.9654 73.096ZM35.9728 73.12C35.6208 73.12 35.2688 73.092 34.9168 73.036C34.5648 72.988 34.2328 72.912 33.9208 72.808C33.6088 72.696 33.3288 72.56 33.0808 72.4C32.9368 72.304 32.8368 72.188 32.7808 72.052C32.7248 71.916 32.7048 71.784 32.7208 71.656C32.7448 71.52 32.7968 71.404 32.8768 71.308C32.9648 71.204 33.0728 71.14 33.2008 71.116C33.3288 71.092 33.4688 71.128 33.6208 71.224C33.9728 71.432 34.3448 71.584 34.7368 71.68C35.1288 71.776 35.5408 71.824 35.9728 71.824C36.6048 71.824 37.0648 71.72 37.3528 71.512C37.6408 71.296 37.7848 71.02 37.7848 70.684C37.7848 70.404 37.6808 70.184 37.4728 70.024C37.2728 69.864 36.9248 69.732 36.4288 69.628L35.1088 69.352C34.3488 69.192 33.7808 68.924 33.4048 68.548C33.0368 68.164 32.8528 67.66 32.8528 67.036C32.8528 66.644 32.9328 66.288 33.0928 65.968C33.2528 65.648 33.4768 65.372 33.7648 65.14C34.0608 64.908 34.4088 64.732 34.8088 64.612C35.2168 64.484 35.6648 64.42 36.1528 64.42C36.6328 64.42 37.0888 64.48 37.5208 64.6C37.9528 64.72 38.3408 64.896 38.6848 65.128C38.8128 65.216 38.8968 65.324 38.9368 65.452C38.9848 65.58 38.9968 65.708 38.9728 65.836C38.9488 65.956 38.8928 66.06 38.8048 66.148C38.7168 66.236 38.6048 66.288 38.4688 66.304C38.3408 66.32 38.1928 66.28 38.0248 66.184C37.7288 66.016 37.4288 65.896 37.1248 65.824C36.8208 65.752 36.4928 65.716 36.1408 65.716C35.7728 65.716 35.4568 65.768 35.1928 65.872C34.9288 65.976 34.7248 66.124 34.5808 66.316C34.4448 66.5 34.3768 66.72 34.3768 66.976C34.3768 67.264 34.4728 67.496 34.6648 67.672C34.8568 67.84 35.1848 67.972 35.6488 68.068L36.9568 68.344C37.7488 68.512 38.3368 68.776 38.7208 69.136C39.1128 69.496 39.3088 69.976 39.3088 70.576C39.3088 70.96 39.2288 71.308 39.0688 71.62C38.9168 71.932 38.6928 72.2 38.3968 72.424C38.1088 72.648 37.7608 72.82 37.3528 72.94C36.9448 73.06 36.4848 73.12 35.9728 73.12ZM43.3751 73.12C42.7111 73.12 42.1391 72.996 41.6591 72.748C41.1791 72.5 40.8071 72.148 40.5431 71.692C40.2871 71.236 40.1591 70.696 40.1591 70.072C40.1591 69.464 40.2831 68.932 40.5311 68.476C40.7871 68.02 41.1351 67.664 41.5751 67.408C42.0231 67.144 42.5311 67.012 43.0991 67.012C43.5151 67.012 43.8871 67.08 44.2151 67.216C44.5511 67.352 44.8351 67.548 45.0671 67.804C45.3071 68.06 45.4871 68.372 45.6071 68.74C45.7351 69.1 45.7991 69.508 45.7991 69.964C45.7991 70.108 45.7471 70.22 45.6431 70.3C45.5471 70.372 45.4071 70.408 45.2231 70.408H41.3711V69.544H44.7431L44.5511 69.724C44.5511 69.356 44.4951 69.048 44.3831 68.8C44.2791 68.552 44.1231 68.364 43.9151 68.236C43.7151 68.1 43.4631 68.032 43.1591 68.032C42.8231 68.032 42.5351 68.112 42.2951 68.272C42.0631 68.424 41.8831 68.644 41.7551 68.932C41.6351 69.212 41.5751 69.548 41.5751 69.94V70.024C41.5751 70.68 41.7271 71.172 42.0311 71.5C42.3431 71.82 42.7991 71.98 43.3991 71.98C43.6071 71.98 43.8391 71.956 44.0951 71.908C44.3591 71.852 44.6071 71.76 44.8391 71.632C45.0071 71.536 45.1551 71.496 45.2831 71.512C45.4111 71.52 45.5111 71.564 45.5831 71.644C45.6631 71.724 45.7111 71.824 45.7271 71.944C45.7431 72.056 45.7191 72.172 45.6551 72.292C45.5991 72.412 45.4991 72.516 45.3551 72.604C45.0751 72.78 44.7511 72.912 44.3831 73C44.0231 73.08 43.6871 73.12 43.3751 73.12ZM49.6516 73.12C49.1316 73.12 48.6956 73.032 48.3436 72.856C47.9996 72.68 47.7436 72.424 47.5756 72.088C47.4076 71.744 47.3236 71.32 47.3236 70.816V68.26H46.6996C46.5076 68.26 46.3596 68.212 46.2556 68.116C46.1516 68.012 46.0996 67.872 46.0996 67.696C46.0996 67.512 46.1516 67.372 46.2556 67.276C46.3596 67.18 46.5076 67.132 46.6996 67.132H47.3236V66.04C47.3236 65.792 47.3876 65.604 47.5156 65.476C47.6516 65.348 47.8396 65.284 48.0796 65.284C48.3196 65.284 48.5036 65.348 48.6316 65.476C48.7596 65.604 48.8236 65.792 48.8236 66.04V67.132H50.0956C50.2876 67.132 50.4356 67.18 50.5396 67.276C50.6436 67.372 50.6956 67.512 50.6956 67.696C50.6956 67.872 50.6436 68.012 50.5396 68.116C50.4356 68.212 50.2876 68.26 50.0956 68.26H48.8236V70.732C48.8236 71.116 48.9076 71.404 49.0756 71.596C49.2436 71.788 49.5156 71.884 49.8916 71.884C50.0276 71.884 50.1476 71.872 50.2516 71.848C50.3556 71.824 50.4476 71.808 50.5276 71.8C50.6236 71.792 50.7036 71.824 50.7676 71.896C50.8316 71.96 50.8636 72.096 50.8636 72.304C50.8636 72.464 50.8356 72.608 50.7796 72.736C50.7316 72.856 50.6396 72.94 50.5036 72.988C50.3996 73.02 50.2636 73.048 50.0956 73.072C49.9276 73.104 49.7796 73.12 49.6516 73.12ZM53.7171 73.12C53.3731 73.12 53.0091 73.084 52.6251 73.012C52.2411 72.94 51.8971 72.816 51.5931 72.64C51.4651 72.56 51.3731 72.468 51.3171 72.364C51.2691 72.252 51.2491 72.144 51.2571 72.04C51.2731 71.928 51.3131 71.832 51.3771 71.752C51.4491 71.672 51.5371 71.62 51.6411 71.596C51.7531 71.572 51.8731 71.592 52.0011 71.656C52.3211 71.808 52.6211 71.916 52.9011 71.98C53.1811 72.036 53.4571 72.064 53.7291 72.064C54.1131 72.064 54.3971 72 54.5811 71.872C54.7731 71.736 54.8691 71.56 54.8691 71.344C54.8691 71.16 54.8051 71.02 54.6771 70.924C54.5571 70.82 54.3731 70.744 54.1251 70.696L52.9251 70.468C52.4291 70.372 52.0491 70.192 51.7851 69.928C51.5291 69.656 51.4011 69.308 51.4011 68.884C51.4011 68.5 51.5051 68.168 51.7131 67.888C51.9291 67.608 52.2251 67.392 52.6011 67.24C52.9771 67.088 53.4091 67.012 53.8971 67.012C54.2491 67.012 54.5771 67.052 54.8811 67.132C55.1931 67.204 55.4931 67.32 55.7811 67.48C55.9011 67.544 55.9811 67.628 56.0211 67.732C56.0691 67.836 56.0811 67.944 56.0571 68.056C56.0331 68.16 55.9851 68.256 55.9131 68.344C55.8411 68.424 55.7491 68.476 55.6371 68.5C55.5331 68.516 55.4131 68.492 55.2771 68.428C55.0291 68.3 54.7891 68.208 54.5571 68.152C54.3331 68.096 54.1171 68.068 53.9091 68.068C53.5171 68.068 53.2251 68.136 53.0331 68.272C52.8491 68.408 52.7571 68.588 52.7571 68.812C52.7571 68.98 52.8131 69.12 52.9251 69.232C53.0371 69.344 53.2091 69.42 53.4411 69.46L54.6411 69.688C55.1611 69.784 55.5531 69.96 55.8171 70.216C56.0891 70.472 56.2251 70.816 56.2251 71.248C56.2251 71.832 55.9971 72.292 55.5411 72.628C55.0851 72.956 54.4771 73.12 53.7171 73.12Z" fill="#454545"/>
<defs>
<filter id="filter0_f_1018_8133" x="-42" y="-14" width="118" height="118" filterUnits="userSpaceOnUse" color-interpolation-filters="sRGB">
<feFlood flood-opacity="0" result="BackgroundImageFix"/>
<feBlend mode="normal" in="SourceGraphic" in2="BackgroundImageFix" result="shape"/>
<feGaussianBlur stdDeviation="16" result="effect1_foregroundBlur_1018_8133"/>
</filter>
<filter id="filter1_f_1018_8133" x="-56" y="-62" width="67.4277" height="85.4253" filterUnits="userSpaceOnUse" color-interpolation-filters="sRGB">
<feFlood flood-opacity="0" result="BackgroundImageFix"/>
<feBlend mode="normal" in="SourceGraphic" in2="BackgroundImageFix" result="shape"/>
<feGaussianBlur stdDeviation="6" result="effect1_foregroundBlur_1018_8133"/>
</filter>
<clipPath id="clip0_1018_8133">
<rect width="57" height="57" rx="28.5" fill="white"/>
</clipPath>
</defs>
</svg>
