<svg width="59" height="77" viewBox="0 0 59 77" fill="none" xmlns="http://www.w3.org/2000/svg">
<g clip-path="url(#clip0_1018_8140)">
<rect x="1" width="57" height="57" rx="28.5" fill="#7E30E1"/>
<g filter="url(#filter0_f_1018_8140)">
<circle cx="18" cy="45" r="27" fill="white" fill-opacity="0.5"/>
</g>
<path d="M38.71 24.0401C38.37 24.3801 38.04 24.7101 38.03 25.0401C38 25.3601 38.34 25.6901 38.66 26.0001C39.14 26.5001 39.61 26.9501 39.59 27.4401C39.57 27.9301 39.06 28.4401 38.55 28.9401L34.42 33.0801L33 31.6601L37.25 27.4201L36.29 26.4601L34.87 27.8701L31.12 24.1201L34.96 20.2901C35.35 19.9001 36 19.9001 36.37 20.2901L38.71 22.6301C39.1 23.0001 39.1 23.6501 38.71 24.0401ZM21 34.2501L30.56 24.6801L34.31 28.4301L24.75 38.0001H21V34.2501Z" fill="white"/>
<g filter="url(#filter1_f_1018_8140)">
<rect x="-6.30176" y="-50" width="8" height="67.8758" transform="rotate(32.7288 -6.30176 -50)" fill="#FAFAFA"/>
</g>
</g>
<path d="M4.15445 73.12C3.80245 73.12 3.45045 73.092 3.09845 73.036C2.74645 72.988 2.41445 72.912 2.10245 72.808C1.79045 72.696 1.51045 72.56 1.26245 72.4C1.11845 72.304 1.01845 72.188 0.962453 72.052C0.906453 71.916 0.886453 71.784 0.902453 71.656C0.926453 71.52 0.978453 71.404 1.05845 71.308C1.14645 71.204 1.25445 71.14 1.38245 71.116C1.51045 71.092 1.65045 71.128 1.80245 71.224C2.15445 71.432 2.52645 71.584 2.91845 71.68C3.31045 71.776 3.72245 71.824 4.15445 71.824C4.78645 71.824 5.24645 71.72 5.53445 71.512C5.82245 71.296 5.96645 71.02 5.96645 70.684C5.96645 70.404 5.86245 70.184 5.65445 70.024C5.45445 69.864 5.10645 69.732 4.61045 69.628L3.29045 69.352C2.53045 69.192 1.96245 68.924 1.58645 68.548C1.21845 68.164 1.03445 67.66 1.03445 67.036C1.03445 66.644 1.11445 66.288 1.27445 65.968C1.43445 65.648 1.65845 65.372 1.94645 65.14C2.24245 64.908 2.59045 64.732 2.99045 64.612C3.39845 64.484 3.84645 64.42 4.33445 64.42C4.81445 64.42 5.27045 64.48 5.70245 64.6C6.13445 64.72 6.52245 64.896 6.86645 65.128C6.99445 65.216 7.07845 65.324 7.11845 65.452C7.16645 65.58 7.17845 65.708 7.15445 65.836C7.13045 65.956 7.07445 66.06 6.98645 66.148C6.89845 66.236 6.78645 66.288 6.65045 66.304C6.52245 66.32 6.37445 66.28 6.20645 66.184C5.91045 66.016 5.61045 65.896 5.30645 65.824C5.00245 65.752 4.67445 65.716 4.32245 65.716C3.95445 65.716 3.63845 65.768 3.37445 65.872C3.11045 65.976 2.90645 66.124 2.76245 66.316C2.62645 66.5 2.55845 66.72 2.55845 66.976C2.55845 67.264 2.65445 67.496 2.84645 67.672C3.03845 67.84 3.36645 67.972 3.83045 68.068L5.13845 68.344C5.93045 68.512 6.51845 68.776 6.90245 69.136C7.29445 69.496 7.49045 69.976 7.49045 70.576C7.49045 70.96 7.41045 71.308 7.25045 71.62C7.09845 71.932 6.87445 72.2 6.57845 72.424C6.29045 72.648 5.94245 72.82 5.53445 72.94C5.12645 73.06 4.66645 73.12 4.15445 73.12ZM11.2942 73.12C10.7742 73.12 10.3382 73.032 9.98617 72.856C9.64217 72.68 9.38617 72.424 9.21817 72.088C9.05017 71.744 8.96617 71.32 8.96617 70.816V68.26H8.34217C8.15017 68.26 8.00217 68.212 7.89817 68.116C7.79417 68.012 7.74217 67.872 7.74217 67.696C7.74217 67.512 7.79417 67.372 7.89817 67.276C8.00217 67.18 8.15017 67.132 8.34217 67.132H8.96617V66.04C8.96617 65.792 9.03017 65.604 9.15817 65.476C9.29417 65.348 9.48217 65.284 9.72217 65.284C9.96217 65.284 10.1462 65.348 10.2742 65.476C10.4022 65.604 10.4662 65.792 10.4662 66.04V67.132H11.7382C11.9302 67.132 12.0782 67.18 12.1822 67.276C12.2862 67.372 12.3382 67.512 12.3382 67.696C12.3382 67.872 12.2862 68.012 12.1822 68.116C12.0782 68.212 11.9302 68.26 11.7382 68.26H10.4662V70.732C10.4662 71.116 10.5502 71.404 10.7182 71.596C10.8862 71.788 11.1582 71.884 11.5342 71.884C11.6702 71.884 11.7902 71.872 11.8942 71.848C11.9982 71.824 12.0902 71.808 12.1702 71.8C12.2662 71.792 12.3462 71.824 12.4102 71.896C12.4742 71.96 12.5062 72.096 12.5062 72.304C12.5062 72.464 12.4782 72.608 12.4222 72.736C12.3742 72.856 12.2822 72.94 12.1462 72.988C12.0422 73.02 11.9062 73.048 11.7382 73.072C11.5702 73.104 11.4222 73.12 11.2942 73.12ZM15.1436 73.12C14.7196 73.12 14.3396 73.04 14.0036 72.88C13.6756 72.712 13.4156 72.488 13.2236 72.208C13.0396 71.928 12.9476 71.612 12.9476 71.26C12.9476 70.828 13.0596 70.488 13.2836 70.24C13.5076 69.984 13.8716 69.8 14.3756 69.688C14.8796 69.576 15.5556 69.52 16.4036 69.52H17.0036V70.384H16.4156C15.9196 70.384 15.5236 70.408 15.2276 70.456C14.9316 70.504 14.7196 70.588 14.5916 70.708C14.4716 70.82 14.4116 70.98 14.4116 71.188C14.4116 71.452 14.5036 71.668 14.6876 71.836C14.8716 72.004 15.1276 72.088 15.4556 72.088C15.7196 72.088 15.9516 72.028 16.1516 71.908C16.3596 71.78 16.5236 71.608 16.6436 71.392C16.7636 71.176 16.8236 70.928 16.8236 70.648V69.268C16.8236 68.868 16.7356 68.58 16.5596 68.404C16.3836 68.228 16.0876 68.14 15.6716 68.14C15.4396 68.14 15.1876 68.168 14.9156 68.224C14.6516 68.28 14.3716 68.376 14.0756 68.512C13.9236 68.584 13.7876 68.604 13.6676 68.572C13.5556 68.54 13.4676 68.476 13.4036 68.38C13.3396 68.276 13.3076 68.164 13.3076 68.044C13.3076 67.924 13.3396 67.808 13.4036 67.696C13.4676 67.576 13.5756 67.488 13.7276 67.432C14.0956 67.28 14.4476 67.172 14.7836 67.108C15.1276 67.044 15.4396 67.012 15.7196 67.012C16.2956 67.012 16.7676 67.1 17.1356 67.276C17.5116 67.452 17.7916 67.72 17.9756 68.08C18.1596 68.432 18.2516 68.888 18.2516 69.448V72.328C18.2516 72.576 18.1916 72.768 18.0716 72.904C17.9516 73.032 17.7796 73.096 17.5556 73.096C17.3316 73.096 17.1556 73.032 17.0276 72.904C16.9076 72.768 16.8476 72.576 16.8476 72.328V71.752H16.9436C16.8876 72.032 16.7756 72.276 16.6076 72.484C16.4476 72.684 16.2436 72.84 15.9956 72.952C15.7476 73.064 15.4636 73.12 15.1436 73.12ZM22.4621 73.12C21.9421 73.12 21.5061 73.032 21.1541 72.856C20.8101 72.68 20.5541 72.424 20.3861 72.088C20.2181 71.744 20.1341 71.32 20.1341 70.816V68.26H19.5101C19.3181 68.26 19.1701 68.212 19.0661 68.116C18.9621 68.012 18.9101 67.872 18.9101 67.696C18.9101 67.512 18.9621 67.372 19.0661 67.276C19.1701 67.18 19.3181 67.132 19.5101 67.132H20.1341V66.04C20.1341 65.792 20.1981 65.604 20.3261 65.476C20.4621 65.348 20.6501 65.284 20.8901 65.284C21.1301 65.284 21.3141 65.348 21.4421 65.476C21.5701 65.604 21.6341 65.792 21.6341 66.04V67.132H22.9061C23.0981 67.132 23.2461 67.18 23.3501 67.276C23.4541 67.372 23.5061 67.512 23.5061 67.696C23.5061 67.872 23.4541 68.012 23.3501 68.116C23.2461 68.212 23.0981 68.26 22.9061 68.26H21.6341V70.732C21.6341 71.116 21.7181 71.404 21.8861 71.596C22.0541 71.788 22.3261 71.884 22.7021 71.884C22.8381 71.884 22.9581 71.872 23.0621 71.848C23.1661 71.824 23.2581 71.808 23.3381 71.8C23.4341 71.792 23.5141 71.824 23.5781 71.896C23.6421 71.96 23.6741 72.096 23.6741 72.304C23.6741 72.464 23.6461 72.608 23.5901 72.736C23.5421 72.856 23.4501 72.94 23.3141 72.988C23.2101 73.02 23.0741 73.048 22.9061 73.072C22.7381 73.104 22.5901 73.12 22.4621 73.12ZM25.276 73.084C25.036 73.084 24.852 73.012 24.724 72.868C24.596 72.724 24.532 72.524 24.532 72.268V67.864C24.532 67.6 24.596 67.4 24.724 67.264C24.852 67.12 25.036 67.048 25.276 67.048C25.516 67.048 25.7 67.12 25.828 67.264C25.964 67.4 26.032 67.6 26.032 67.864V72.268C26.032 72.524 25.968 72.724 25.84 72.868C25.712 73.012 25.524 73.084 25.276 73.084ZM25.276 65.932C24.996 65.932 24.776 65.864 24.616 65.728C24.464 65.584 24.388 65.388 24.388 65.14C24.388 64.884 24.464 64.688 24.616 64.552C24.776 64.416 24.996 64.348 25.276 64.348C25.564 64.348 25.784 64.416 25.936 64.552C26.088 64.688 26.164 64.884 26.164 65.14C26.164 65.388 26.088 65.584 25.936 65.728C25.784 65.864 25.564 65.932 25.276 65.932ZM30.2665 73.12C29.6585 73.12 29.1305 72.996 28.6825 72.748C28.2345 72.5 27.8865 72.148 27.6385 71.692C27.3905 71.228 27.2665 70.684 27.2665 70.06C27.2665 69.588 27.3345 69.168 27.4705 68.8C27.6145 68.424 27.8185 68.104 28.0825 67.84C28.3465 67.568 28.6625 67.364 29.0305 67.228C29.3985 67.084 29.8105 67.012 30.2665 67.012C30.8745 67.012 31.4025 67.136 31.8505 67.384C32.2985 67.632 32.6465 67.984 32.8945 68.44C33.1425 68.896 33.2665 69.436 33.2665 70.06C33.2665 70.532 33.1945 70.956 33.0505 71.332C32.9145 71.708 32.7145 72.032 32.4505 72.304C32.1865 72.568 31.8705 72.772 31.5025 72.916C31.1345 73.052 30.7225 73.12 30.2665 73.12ZM30.2665 71.98C30.5625 71.98 30.8225 71.908 31.0465 71.764C31.2705 71.62 31.4425 71.408 31.5625 71.128C31.6905 70.84 31.7545 70.484 31.7545 70.06C31.7545 69.42 31.6185 68.944 31.3465 68.632C31.0745 68.312 30.7145 68.152 30.2665 68.152C29.9705 68.152 29.7105 68.224 29.4865 68.368C29.2625 68.504 29.0865 68.716 28.9585 69.004C28.8385 69.284 28.7785 69.636 28.7785 70.06C28.7785 70.692 28.9145 71.172 29.1865 71.5C29.4585 71.82 29.8185 71.98 30.2665 71.98ZM35.2486 73.096C35.0086 73.096 34.8246 73.032 34.6966 72.904C34.5686 72.768 34.5046 72.576 34.5046 72.328V67.792C34.5046 67.544 34.5686 67.356 34.6966 67.228C34.8246 67.1 35.0046 67.036 35.2366 67.036C35.4686 67.036 35.6486 67.1 35.7766 67.228C35.9046 67.356 35.9686 67.544 35.9686 67.792V68.608L35.8366 68.308C36.0126 67.884 36.2846 67.564 36.6526 67.348C37.0286 67.124 37.4526 67.012 37.9246 67.012C38.3966 67.012 38.7846 67.1 39.0886 67.276C39.3926 67.452 39.6206 67.72 39.7726 68.08C39.9246 68.432 40.0006 68.88 40.0006 69.424V72.328C40.0006 72.576 39.9366 72.768 39.8086 72.904C39.6806 73.032 39.4966 73.096 39.2566 73.096C39.0166 73.096 38.8286 73.032 38.6926 72.904C38.5646 72.768 38.5006 72.576 38.5006 72.328V69.496C38.5006 69.04 38.4126 68.708 38.2366 68.5C38.0686 68.292 37.8046 68.188 37.4446 68.188C37.0046 68.188 36.6526 68.328 36.3886 68.608C36.1326 68.88 36.0046 69.244 36.0046 69.7V72.328C36.0046 72.84 35.7526 73.096 35.2486 73.096ZM43.4561 73.12C43.0321 73.12 42.6521 73.04 42.3161 72.88C41.9881 72.712 41.7281 72.488 41.5361 72.208C41.3521 71.928 41.2601 71.612 41.2601 71.26C41.2601 70.828 41.3721 70.488 41.5961 70.24C41.8201 69.984 42.1841 69.8 42.6881 69.688C43.1921 69.576 43.8681 69.52 44.7161 69.52H45.3161V70.384H44.7281C44.2321 70.384 43.8361 70.408 43.5401 70.456C43.2441 70.504 43.0321 70.588 42.9041 70.708C42.7841 70.82 42.7241 70.98 42.7241 71.188C42.7241 71.452 42.8161 71.668 43.0001 71.836C43.1841 72.004 43.4401 72.088 43.7681 72.088C44.0321 72.088 44.2641 72.028 44.4641 71.908C44.6721 71.78 44.8361 71.608 44.9561 71.392C45.0761 71.176 45.1361 70.928 45.1361 70.648V69.268C45.1361 68.868 45.0481 68.58 44.8721 68.404C44.6961 68.228 44.4001 68.14 43.9841 68.14C43.7521 68.14 43.5001 68.168 43.2281 68.224C42.9641 68.28 42.6841 68.376 42.3881 68.512C42.2361 68.584 42.1001 68.604 41.9801 68.572C41.8681 68.54 41.7801 68.476 41.7161 68.38C41.6521 68.276 41.6201 68.164 41.6201 68.044C41.6201 67.924 41.6521 67.808 41.7161 67.696C41.7801 67.576 41.8881 67.488 42.0401 67.432C42.4081 67.28 42.7601 67.172 43.0961 67.108C43.4401 67.044 43.7521 67.012 44.0321 67.012C44.6081 67.012 45.0801 67.1 45.4481 67.276C45.8241 67.452 46.1041 67.72 46.2881 68.08C46.4721 68.432 46.5641 68.888 46.5641 69.448V72.328C46.5641 72.576 46.5041 72.768 46.3841 72.904C46.2641 73.032 46.0921 73.096 45.8681 73.096C45.6441 73.096 45.4681 73.032 45.3401 72.904C45.2201 72.768 45.1601 72.576 45.1601 72.328V71.752H45.2561C45.2001 72.032 45.0881 72.276 44.9201 72.484C44.7601 72.684 44.5561 72.84 44.3081 72.952C44.0601 73.064 43.7761 73.12 43.4561 73.12ZM48.8546 73.096C48.6066 73.096 48.4146 73.032 48.2786 72.904C48.1506 72.768 48.0866 72.576 48.0866 72.328V67.792C48.0866 67.544 48.1506 67.356 48.2786 67.228C48.4066 67.1 48.5866 67.036 48.8186 67.036C49.0506 67.036 49.2306 67.1 49.3586 67.228C49.4866 67.356 49.5506 67.544 49.5506 67.792V68.548H49.4306C49.5426 68.068 49.7626 67.704 50.0906 67.456C50.4186 67.208 50.8546 67.06 51.3986 67.012C51.5666 66.996 51.6986 67.04 51.7946 67.144C51.8986 67.24 51.9586 67.392 51.9746 67.6C51.9906 67.8 51.9426 67.964 51.8306 68.092C51.7266 68.212 51.5666 68.284 51.3506 68.308L51.0866 68.332C50.5986 68.38 50.2306 68.532 49.9826 68.788C49.7346 69.036 49.6106 69.388 49.6106 69.844V72.328C49.6106 72.576 49.5466 72.768 49.4186 72.904C49.2906 73.032 49.1026 73.096 48.8546 73.096ZM54.6371 75.256C54.4611 75.256 54.3171 75.208 54.2051 75.112C54.0931 75.024 54.0251 74.904 54.0011 74.752C53.9851 74.6 54.0131 74.44 54.0851 74.272L54.9011 72.46V73.084L52.7171 68.032C52.6451 67.856 52.6211 67.692 52.6451 67.54C52.6691 67.388 52.7411 67.268 52.8611 67.18C52.9891 67.084 53.1611 67.036 53.3771 67.036C53.5611 67.036 53.7091 67.08 53.8211 67.168C53.9331 67.248 54.0331 67.404 54.1211 67.636L55.7411 71.68H55.3811L57.0371 67.624C57.1251 67.4 57.2291 67.248 57.3491 67.168C57.4691 67.08 57.6291 67.036 57.8291 67.036C58.0051 67.036 58.1451 67.084 58.2491 67.18C58.3531 67.268 58.4171 67.388 58.4411 67.54C58.4651 67.684 58.4371 67.844 58.3571 68.02L55.4411 74.68C55.3371 74.904 55.2251 75.056 55.1051 75.136C54.9851 75.216 54.8291 75.256 54.6371 75.256Z" fill="#454545"/>
<defs>
<filter id="filter0_f_1018_8140" x="-41" y="-14" width="118" height="118" filterUnits="userSpaceOnUse" color-interpolation-filters="sRGB">
<feFlood flood-opacity="0" result="BackgroundImageFix"/>
<feBlend mode="normal" in="SourceGraphic" in2="BackgroundImageFix" result="shape"/>
<feGaussianBlur stdDeviation="16" result="effect1_foregroundBlur_1018_8140"/>
</filter>
<filter id="filter1_f_1018_8140" x="-55" y="-62" width="67.4277" height="85.4253" filterUnits="userSpaceOnUse" color-interpolation-filters="sRGB">
<feFlood flood-opacity="0" result="BackgroundImageFix"/>
<feBlend mode="normal" in="SourceGraphic" in2="BackgroundImageFix" result="shape"/>
<feGaussianBlur stdDeviation="6" result="effect1_foregroundBlur_1018_8140"/>
</filter>
<clipPath id="clip0_1018_8140">
<rect x="1" width="57" height="57" rx="28.5" fill="white"/>
</clipPath>
</defs>
</svg>
