<svg width="57" height="57" viewBox="0 0 57 57" fill="none" xmlns="http://www.w3.org/2000/svg">
<g clip-path="url(#clip0_1018_8096)">
<rect width="57" height="57" rx="28.5" fill="#7E30E1"/>
<g filter="url(#filter0_f_1018_8096)">
<circle cx="17" cy="45" r="27" fill="white" fill-opacity="0.5"/>
</g>
<path d="M37.71 24.0401C37.37 24.3801 37.04 24.7101 37.03 25.0401C37 25.3601 37.34 25.6901 37.66 26.0001C38.14 26.5001 38.61 26.9501 38.59 27.4401C38.57 27.9301 38.06 28.4401 37.55 28.9401L33.42 33.0801L32 31.6601L36.25 27.4201L35.29 26.4601L33.87 27.8701L30.12 24.1201L33.96 20.2901C34.35 19.9001 35 19.9001 35.37 20.2901L37.71 22.6301C38.1 23.0001 38.1 23.6501 37.71 24.0401ZM20 34.2501L29.56 24.6801L33.31 28.4301L23.75 38.0001H20V34.2501Z" fill="white"/>
<g filter="url(#filter1_f_1018_8096)">
<rect x="-7.30176" y="-50" width="8" height="67.8758" transform="rotate(32.7288 -7.30176 -50)" fill="#FAFAFA"/>
</g>
</g>
<defs>
<filter id="filter0_f_1018_8096" x="-42" y="-14" width="118" height="118" filterUnits="userSpaceOnUse" color-interpolation-filters="sRGB">
<feFlood flood-opacity="0" result="BackgroundImageFix"/>
<feBlend mode="normal" in="SourceGraphic" in2="BackgroundImageFix" result="shape"/>
<feGaussianBlur stdDeviation="16" result="effect1_foregroundBlur_1018_8096"/>
</filter>
<filter id="filter1_f_1018_8096" x="-56" y="-62" width="67.4277" height="85.4253" filterUnits="userSpaceOnUse" color-interpolation-filters="sRGB">
<feFlood flood-opacity="0" result="BackgroundImageFix"/>
<feBlend mode="normal" in="SourceGraphic" in2="BackgroundImageFix" result="shape"/>
<feGaussianBlur stdDeviation="6" result="effect1_foregroundBlur_1018_8096"/>
</filter>
<clipPath id="clip0_1018_8096">
<rect width="57" height="57" rx="28.5" fill="white"/>
</clipPath>
</defs>
</svg>
