<svg width="57" height="93" viewBox="0 0 57 93" fill="none" xmlns="http://www.w3.org/2000/svg">
<g clip-path="url(#clip0_1018_8147)">
<rect width="57" height="57" rx="28.5" fill="#00AF11"/>
<g filter="url(#filter0_f_1018_8147)">
<circle cx="17" cy="45" r="27" fill="white" fill-opacity="0.5"/>
</g>
<path d="M36 20H22C20.9 20 20 20.9 20 22V36C20 37.1 20.9 38 22 38H36C37.1 38 38 37.1 38 36V22C38 20.9 37.1 20 36 20ZM24 24H26V26H24V24ZM24 28H26V30H24V28ZM24 32H26V34H24V32ZM34 34H28V32H34V34ZM34 30H28V28H34V30ZM34 26H28V24H34V26Z" fill="white"/>
<g filter="url(#filter1_f_1018_8147)">
<rect x="-7.30176" y="-50" width="8" height="67.8758" transform="rotate(32.7288 -7.30176 -50)" fill="#FAFAFA"/>
</g>
</g>
<path d="M13.3849 73.12C13.0329 73.12 12.6809 73.092 12.3289 73.036C11.9769 72.988 11.6449 72.912 11.3329 72.808C11.0209 72.696 10.7409 72.56 10.4929 72.4C10.3489 72.304 10.2489 72.188 10.1929 72.052C10.1369 71.916 10.1169 71.784 10.1329 71.656C10.1569 71.52 10.2089 71.404 10.2889 71.308C10.3769 71.204 10.4849 71.14 10.6129 71.116C10.7409 71.092 10.8809 71.128 11.0329 71.224C11.3849 71.432 11.7569 71.584 12.1489 71.68C12.5409 71.776 12.9529 71.824 13.3849 71.824C14.0169 71.824 14.4769 71.72 14.7649 71.512C15.0529 71.296 15.1969 71.02 15.1969 70.684C15.1969 70.404 15.0929 70.184 14.8849 70.024C14.6849 69.864 14.3369 69.732 13.8409 69.628L12.5209 69.352C11.7609 69.192 11.1929 68.924 10.8169 68.548C10.4489 68.164 10.2649 67.66 10.2649 67.036C10.2649 66.644 10.3449 66.288 10.5049 65.968C10.6649 65.648 10.8889 65.372 11.1769 65.14C11.4729 64.908 11.8209 64.732 12.2209 64.612C12.6289 64.484 13.0769 64.42 13.5649 64.42C14.0449 64.42 14.5009 64.48 14.9329 64.6C15.3649 64.72 15.7529 64.896 16.0969 65.128C16.2249 65.216 16.3089 65.324 16.3489 65.452C16.3969 65.58 16.4089 65.708 16.3849 65.836C16.3609 65.956 16.3049 66.06 16.2169 66.148C16.1289 66.236 16.0169 66.288 15.8809 66.304C15.7529 66.32 15.6049 66.28 15.4369 66.184C15.1409 66.016 14.8409 65.896 14.5369 65.824C14.2329 65.752 13.9049 65.716 13.5529 65.716C13.1849 65.716 12.8689 65.768 12.6049 65.872C12.3409 65.976 12.1369 66.124 11.9929 66.316C11.8569 66.5 11.7889 66.72 11.7889 66.976C11.7889 67.264 11.8849 67.496 12.0769 67.672C12.2689 67.84 12.5969 67.972 13.0609 68.068L14.3689 68.344C15.1609 68.512 15.7489 68.776 16.1329 69.136C16.5249 69.496 16.7209 69.976 16.7209 70.576C16.7209 70.96 16.6409 71.308 16.4809 71.62C16.3289 71.932 16.1049 72.2 15.8089 72.424C15.5209 72.648 15.1729 72.82 14.7649 72.94C14.3569 73.06 13.8969 73.12 13.3849 73.12ZM20.6072 73.12C19.9912 73.12 19.4552 72.996 18.9992 72.748C18.5432 72.492 18.1912 72.132 17.9432 71.668C17.6952 71.204 17.5712 70.66 17.5712 70.036C17.5712 69.564 17.6392 69.144 17.7752 68.776C17.9192 68.4 18.1232 68.084 18.3872 67.828C18.6512 67.564 18.9712 67.364 19.3472 67.228C19.7232 67.084 20.1432 67.012 20.6072 67.012C20.8712 67.012 21.1552 67.048 21.4592 67.12C21.7712 67.192 22.0632 67.312 22.3352 67.48C22.4632 67.56 22.5472 67.656 22.5872 67.768C22.6272 67.88 22.6352 67.996 22.6112 68.116C22.5872 68.228 22.5352 68.328 22.4552 68.416C22.3832 68.496 22.2912 68.548 22.1792 68.572C22.0672 68.588 21.9432 68.56 21.8072 68.488C21.6312 68.384 21.4512 68.308 21.2672 68.26C21.0832 68.204 20.9072 68.176 20.7392 68.176C20.4752 68.176 20.2432 68.22 20.0432 68.308C19.8432 68.388 19.6712 68.508 19.5272 68.668C19.3912 68.82 19.2872 69.012 19.2152 69.244C19.1432 69.476 19.1072 69.744 19.1072 70.048C19.1072 70.64 19.2472 71.108 19.5272 71.452C19.8152 71.788 20.2192 71.956 20.7392 71.956C20.9072 71.956 21.0792 71.932 21.2552 71.884C21.4392 71.836 21.6232 71.76 21.8072 71.656C21.9432 71.584 22.0632 71.56 22.1672 71.584C22.2792 71.608 22.3712 71.664 22.4432 71.752C22.5152 71.832 22.5592 71.932 22.5752 72.052C22.5912 72.164 22.5752 72.276 22.5272 72.388C22.4872 72.5 22.4072 72.592 22.2872 72.664C22.0232 72.824 21.7432 72.94 21.4472 73.012C21.1512 73.084 20.8712 73.12 20.6072 73.12ZM24.2994 73.096C24.0594 73.096 23.8754 73.032 23.7474 72.904C23.6194 72.768 23.5554 72.576 23.5554 72.328V65.2C23.5554 64.952 23.6194 64.764 23.7474 64.636C23.8754 64.508 24.0594 64.444 24.2994 64.444C24.5394 64.444 24.7234 64.508 24.8514 64.636C24.9874 64.764 25.0554 64.952 25.0554 65.2V68.308H24.8874C25.0634 67.884 25.3354 67.564 25.7034 67.348C26.0794 67.124 26.5034 67.012 26.9754 67.012C27.4474 67.012 27.8354 67.1 28.1394 67.276C28.4434 67.452 28.6714 67.72 28.8234 68.08C28.9754 68.432 29.0514 68.88 29.0514 69.424V72.328C29.0514 72.576 28.9874 72.768 28.8594 72.904C28.7314 73.032 28.5474 73.096 28.3074 73.096C28.0674 73.096 27.8794 73.032 27.7434 72.904C27.6154 72.768 27.5514 72.576 27.5514 72.328V69.496C27.5514 69.04 27.4634 68.708 27.2874 68.5C27.1194 68.292 26.8554 68.188 26.4954 68.188C26.0554 68.188 25.7034 68.328 25.4394 68.608C25.1834 68.88 25.0554 69.244 25.0554 69.7V72.328C25.0554 72.84 24.8034 73.096 24.2994 73.096ZM33.2509 73.12C32.6429 73.12 32.1149 72.996 31.6669 72.748C31.2189 72.5 30.8709 72.148 30.6229 71.692C30.3749 71.228 30.2509 70.684 30.2509 70.06C30.2509 69.588 30.3189 69.168 30.4549 68.8C30.5989 68.424 30.8029 68.104 31.0669 67.84C31.3309 67.568 31.6469 67.364 32.0149 67.228C32.3829 67.084 32.7949 67.012 33.2509 67.012C33.8589 67.012 34.3869 67.136 34.8349 67.384C35.2829 67.632 35.6309 67.984 35.8789 68.44C36.1269 68.896 36.2509 69.436 36.2509 70.06C36.2509 70.532 36.1789 70.956 36.0349 71.332C35.8989 71.708 35.6989 72.032 35.4349 72.304C35.1709 72.568 34.8549 72.772 34.4869 72.916C34.1189 73.052 33.7069 73.12 33.2509 73.12ZM33.2509 71.98C33.5469 71.98 33.8069 71.908 34.0309 71.764C34.2549 71.62 34.4269 71.408 34.5469 71.128C34.6749 70.84 34.7389 70.484 34.7389 70.06C34.7389 69.42 34.6029 68.944 34.3309 68.632C34.0589 68.312 33.6989 68.152 33.2509 68.152C32.9549 68.152 32.6949 68.224 32.4709 68.368C32.2469 68.504 32.0709 68.716 31.9429 69.004C31.8229 69.284 31.7629 69.636 31.7629 70.06C31.7629 70.692 31.8989 71.172 32.1709 71.5C32.4429 71.82 32.8029 71.98 33.2509 71.98ZM40.165 73.12C39.557 73.12 39.029 72.996 38.581 72.748C38.133 72.5 37.785 72.148 37.537 71.692C37.289 71.228 37.165 70.684 37.165 70.06C37.165 69.588 37.233 69.168 37.369 68.8C37.513 68.424 37.717 68.104 37.981 67.84C38.245 67.568 38.561 67.364 38.929 67.228C39.297 67.084 39.709 67.012 40.165 67.012C40.773 67.012 41.301 67.136 41.749 67.384C42.197 67.632 42.545 67.984 42.793 68.44C43.041 68.896 43.165 69.436 43.165 70.06C43.165 70.532 43.093 70.956 42.949 71.332C42.813 71.708 42.613 72.032 42.349 72.304C42.085 72.568 41.769 72.772 41.401 72.916C41.033 73.052 40.621 73.12 40.165 73.12ZM40.165 71.98C40.461 71.98 40.721 71.908 40.945 71.764C41.169 71.62 41.341 71.408 41.461 71.128C41.589 70.84 41.653 70.484 41.653 70.06C41.653 69.42 41.517 68.944 41.245 68.632C40.973 68.312 40.613 68.152 40.165 68.152C39.869 68.152 39.609 68.224 39.385 68.368C39.161 68.504 38.985 68.716 38.857 69.004C38.737 69.284 38.677 69.636 38.677 70.06C38.677 70.692 38.813 71.172 39.085 71.5C39.357 71.82 39.717 71.98 40.165 71.98ZM46.407 73.12C45.743 73.12 45.243 72.932 44.907 72.556C44.571 72.172 44.403 71.612 44.403 70.876V65.2C44.403 64.952 44.467 64.764 44.595 64.636C44.723 64.508 44.907 64.444 45.147 64.444C45.387 64.444 45.571 64.508 45.699 64.636C45.835 64.764 45.903 64.952 45.903 65.2V70.804C45.903 71.172 45.979 71.444 46.131 71.62C46.291 71.796 46.515 71.884 46.803 71.884C46.867 71.884 46.927 71.884 46.983 71.884C47.039 71.876 47.095 71.868 47.151 71.86C47.263 71.844 47.339 71.876 47.379 71.956C47.419 72.028 47.439 72.18 47.439 72.412C47.439 72.612 47.399 72.768 47.319 72.88C47.239 72.992 47.107 73.06 46.923 73.084C46.843 73.092 46.759 73.1 46.671 73.108C46.583 73.116 46.495 73.12 46.407 73.12ZM12.9543 89.096C12.7063 89.096 12.5103 89.028 12.3663 88.892C12.2303 88.748 12.1623 88.544 12.1623 88.28V81.356C12.1623 81.092 12.2303 80.892 12.3663 80.756C12.5103 80.612 12.7143 80.54 12.9783 80.54H17.1663C17.3743 80.54 17.5303 80.592 17.6343 80.696C17.7383 80.8 17.7903 80.948 17.7903 81.14C17.7903 81.34 17.7383 81.496 17.6343 81.608C17.5303 81.712 17.3743 81.764 17.1663 81.764H13.6983V84.152H16.9143C17.1143 84.152 17.2663 84.204 17.3703 84.308C17.4823 84.412 17.5383 84.56 17.5383 84.752C17.5383 84.952 17.4823 85.108 17.3703 85.22C17.2663 85.324 17.1143 85.376 16.9143 85.376H13.6983V88.28C13.6983 88.824 13.4503 89.096 12.9543 89.096ZM21.2216 89.12C20.6136 89.12 20.0856 88.996 19.6376 88.748C19.1896 88.5 18.8416 88.148 18.5936 87.692C18.3456 87.228 18.2216 86.684 18.2216 86.06C18.2216 85.588 18.2896 85.168 18.4256 84.8C18.5696 84.424 18.7736 84.104 19.0376 83.84C19.3016 83.568 19.6176 83.364 19.9856 83.228C20.3536 83.084 20.7656 83.012 21.2216 83.012C21.8296 83.012 22.3576 83.136 22.8056 83.384C23.2536 83.632 23.6016 83.984 23.8496 84.44C24.0976 84.896 24.2216 85.436 24.2216 86.06C24.2216 86.532 24.1496 86.956 24.0056 87.332C23.8696 87.708 23.6696 88.032 23.4056 88.304C23.1416 88.568 22.8256 88.772 22.4576 88.916C22.0896 89.052 21.6776 89.12 21.2216 89.12ZM21.2216 87.98C21.5176 87.98 21.7776 87.908 22.0016 87.764C22.2256 87.62 22.3976 87.408 22.5176 87.128C22.6456 86.84 22.7096 86.484 22.7096 86.06C22.7096 85.42 22.5736 84.944 22.3016 84.632C22.0296 84.312 21.6696 84.152 21.2216 84.152C20.9256 84.152 20.6656 84.224 20.4416 84.368C20.2176 84.504 20.0416 84.716 19.9136 85.004C19.7936 85.284 19.7336 85.636 19.7336 86.06C19.7336 86.692 19.8696 87.172 20.1416 87.5C20.4136 87.82 20.7736 87.98 21.2216 87.98ZM26.2277 89.096C25.9797 89.096 25.7877 89.032 25.6517 88.904C25.5237 88.768 25.4597 88.576 25.4597 88.328V83.792C25.4597 83.544 25.5237 83.356 25.6517 83.228C25.7797 83.1 25.9597 83.036 26.1917 83.036C26.4237 83.036 26.6037 83.1 26.7317 83.228C26.8597 83.356 26.9237 83.544 26.9237 83.792V84.548H26.8037C26.9157 84.068 27.1357 83.704 27.4637 83.456C27.7917 83.208 28.2277 83.06 28.7717 83.012C28.9397 82.996 29.0717 83.04 29.1677 83.144C29.2717 83.24 29.3317 83.392 29.3477 83.6C29.3637 83.8 29.3157 83.964 29.2037 84.092C29.0997 84.212 28.9397 84.284 28.7237 84.308L28.4597 84.332C27.9717 84.38 27.6037 84.532 27.3557 84.788C27.1077 85.036 26.9837 85.388 26.9837 85.844V88.328C26.9837 88.576 26.9197 88.768 26.7917 88.904C26.6637 89.032 26.4757 89.096 26.2277 89.096ZM30.9269 89.096C30.6869 89.096 30.5029 89.032 30.3749 88.904C30.2469 88.768 30.1829 88.576 30.1829 88.328V83.792C30.1829 83.544 30.2469 83.356 30.3749 83.228C30.5029 83.1 30.6829 83.036 30.9149 83.036C31.1469 83.036 31.3269 83.1 31.4549 83.228C31.5829 83.356 31.6469 83.544 31.6469 83.792V84.668L31.5149 84.308C31.6749 83.908 31.9229 83.592 32.2589 83.36C32.5949 83.128 32.9949 83.012 33.4589 83.012C33.9309 83.012 34.3189 83.124 34.6229 83.348C34.9269 83.572 35.1389 83.916 35.2589 84.38H35.0909C35.2509 83.956 35.5149 83.624 35.8829 83.384C36.2509 83.136 36.6749 83.012 37.1549 83.012C37.6029 83.012 37.9709 83.1 38.2589 83.276C38.5549 83.452 38.7749 83.72 38.9189 84.08C39.0629 84.432 39.1349 84.88 39.1349 85.424V88.328C39.1349 88.576 39.0669 88.768 38.9309 88.904C38.8029 89.032 38.6189 89.096 38.3789 89.096C38.1389 89.096 37.9549 89.032 37.8269 88.904C37.6989 88.768 37.6349 88.576 37.6349 88.328V85.484C37.6349 85.036 37.5589 84.708 37.4069 84.5C37.2629 84.292 37.0149 84.188 36.6629 84.188C36.2709 84.188 35.9629 84.328 35.7389 84.608C35.5149 84.88 35.4029 85.26 35.4029 85.748V88.328C35.4029 88.576 35.3389 88.768 35.2109 88.904C35.0829 89.032 34.8989 89.096 34.6589 89.096C34.4189 89.096 34.2309 89.032 34.0949 88.904C33.9669 88.768 33.9029 88.576 33.9029 88.328V85.484C33.9029 85.036 33.8269 84.708 33.6749 84.5C33.5309 84.292 33.2869 84.188 32.9429 84.188C32.5509 84.188 32.2429 84.328 32.0189 84.608C31.7949 84.88 31.6829 85.26 31.6829 85.748V88.328C31.6829 88.84 31.4309 89.096 30.9269 89.096ZM42.8303 89.12C42.4863 89.12 42.1223 89.084 41.7383 89.012C41.3543 88.94 41.0103 88.816 40.7063 88.64C40.5783 88.56 40.4863 88.468 40.4303 88.364C40.3823 88.252 40.3623 88.144 40.3703 88.04C40.3863 87.928 40.4263 87.832 40.4903 87.752C40.5623 87.672 40.6503 87.62 40.7543 87.596C40.8663 87.572 40.9863 87.592 41.1143 87.656C41.4343 87.808 41.7343 87.916 42.0143 87.98C42.2943 88.036 42.5703 88.064 42.8423 88.064C43.2263 88.064 43.5103 88 43.6943 87.872C43.8863 87.736 43.9823 87.56 43.9823 87.344C43.9823 87.16 43.9183 87.02 43.7903 86.924C43.6703 86.82 43.4863 86.744 43.2383 86.696L42.0383 86.468C41.5423 86.372 41.1623 86.192 40.8983 85.928C40.6423 85.656 40.5143 85.308 40.5143 84.884C40.5143 84.5 40.6183 84.168 40.8263 83.888C41.0423 83.608 41.3383 83.392 41.7143 83.24C42.0903 83.088 42.5223 83.012 43.0103 83.012C43.3623 83.012 43.6903 83.052 43.9943 83.132C44.3063 83.204 44.6063 83.32 44.8943 83.48C45.0143 83.544 45.0943 83.628 45.1343 83.732C45.1823 83.836 45.1943 83.944 45.1703 84.056C45.1463 84.16 45.0983 84.256 45.0263 84.344C44.9543 84.424 44.8623 84.476 44.7503 84.5C44.6463 84.516 44.5263 84.492 44.3903 84.428C44.1423 84.3 43.9023 84.208 43.6703 84.152C43.4463 84.096 43.2303 84.068 43.0223 84.068C42.6303 84.068 42.3383 84.136 42.1463 84.272C41.9623 84.408 41.8703 84.588 41.8703 84.812C41.8703 84.98 41.9263 85.12 42.0383 85.232C42.1503 85.344 42.3223 85.42 42.5543 85.46L43.7543 85.688C44.2743 85.784 44.6663 85.96 44.9303 86.216C45.2023 86.472 45.3383 86.816 45.3383 87.248C45.3383 87.832 45.1103 88.292 44.6543 88.628C44.1983 88.956 43.5903 89.12 42.8303 89.12Z" fill="#454545"/>
<defs>
<filter id="filter0_f_1018_8147" x="-42" y="-14" width="118" height="118" filterUnits="userSpaceOnUse" color-interpolation-filters="sRGB">
<feFlood flood-opacity="0" result="BackgroundImageFix"/>
<feBlend mode="normal" in="SourceGraphic" in2="BackgroundImageFix" result="shape"/>
<feGaussianBlur stdDeviation="16" result="effect1_foregroundBlur_1018_8147"/>
</filter>
<filter id="filter1_f_1018_8147" x="-56" y="-62" width="67.4277" height="85.4253" filterUnits="userSpaceOnUse" color-interpolation-filters="sRGB">
<feFlood flood-opacity="0" result="BackgroundImageFix"/>
<feBlend mode="normal" in="SourceGraphic" in2="BackgroundImageFix" result="shape"/>
<feGaussianBlur stdDeviation="6" result="effect1_foregroundBlur_1018_8147"/>
</filter>
<clipPath id="clip0_1018_8147">
<rect width="57" height="57" rx="28.5" fill="white"/>
</clipPath>
</defs>
</svg>
