<svg width="57" height="77" viewBox="0 0 57 77" fill="none" xmlns="http://www.w3.org/2000/svg">
<g clip-path="url(#clip0_1018_8154)">
<rect width="57" height="57" rx="28.5" fill="#FF9B05"/>
<g filter="url(#filter0_f_1018_8154)">
<circle cx="17" cy="45" r="27" fill="white" fill-opacity="0.5"/>
</g>
<g clip-path="url(#clip1_1018_8154)">
<path fill-rule="evenodd" clip-rule="evenodd" d="M21 24C21 22.6739 21.5268 21.4021 22.4645 20.4645C23.4021 19.5268 24.6739 19 26 19C26.482 19 26.938 19.17 27.114 19.667C27.2522 20.0567 27.5077 20.3941 27.8454 20.6327C28.1831 20.8713 28.5865 20.9994 29 20.9994C29.4135 20.9994 29.8169 20.8713 30.1546 20.6327C30.4923 20.3941 30.7478 20.0567 30.886 19.667C31.063 19.17 31.519 19 32 19C33.3261 19 34.5979 19.5268 35.5355 20.4645C36.4732 21.4021 37 22.6739 37 24V24.5C37 24.8978 36.842 25.2794 36.5607 25.5607C36.2794 25.842 35.8978 26 35.5 26H33C33 26.77 32.924 27.554 33.438 28.197L35.466 30.732C36.459 31.9732 37 33.5154 37 35.105V36C37 36.7956 36.6839 37.5587 36.1213 38.1213C35.5587 38.6839 34.7956 39 34 39H24C23.2044 39 22.4413 38.6839 21.8787 38.1213C21.3161 37.5587 21 36.7956 21 36V35.105C21 33.5154 21.541 31.9732 22.534 30.732L24.562 28.197C25.076 27.554 25 26.771 25 26H22.5C22.1022 26 21.7206 25.842 21.4393 25.5607C21.158 25.2794 21 24.8978 21 24.5V24Z" fill="white"/>
</g>
<g filter="url(#filter1_f_1018_8154)">
<rect x="-7.30176" y="-50" width="8" height="67.8758" transform="rotate(32.7288 -7.30176 -50)" fill="#FAFAFA"/>
</g>
</g>
<path d="M10.2935 73.12C9.70952 73.12 9.19352 73.044 8.74552 72.892C8.30552 72.74 7.93352 72.516 7.62952 72.22C7.32552 71.916 7.09752 71.54 6.94552 71.092C6.79352 70.644 6.71752 70.124 6.71752 69.532V65.224C6.71752 64.96 6.78152 64.764 6.90952 64.636C7.04552 64.508 7.23752 64.444 7.48552 64.444C7.73352 64.444 7.92152 64.508 8.04952 64.636C8.18552 64.764 8.25352 64.96 8.25352 65.224V69.52C8.25352 70.28 8.42552 70.852 8.76952 71.236C9.12152 71.612 9.62952 71.8 10.2935 71.8C10.9575 71.8 11.4615 71.612 11.8055 71.236C12.1495 70.852 12.3215 70.28 12.3215 69.52V65.224C12.3215 64.96 12.3855 64.764 12.5135 64.636C12.6495 64.508 12.8415 64.444 13.0895 64.444C13.3295 64.444 13.5135 64.508 13.6415 64.636C13.7775 64.764 13.8455 64.96 13.8455 65.224V69.532C13.8455 70.316 13.7095 70.976 13.4375 71.512C13.1735 72.048 12.7775 72.452 12.2495 72.724C11.7215 72.988 11.0695 73.12 10.2935 73.12ZM16.2369 73.096C15.9969 73.096 15.8129 73.032 15.6849 72.904C15.5569 72.768 15.4929 72.576 15.4929 72.328V67.792C15.4929 67.544 15.5569 67.356 15.6849 67.228C15.8129 67.1 15.9929 67.036 16.2249 67.036C16.4569 67.036 16.6369 67.1 16.7649 67.228C16.8929 67.356 16.9569 67.544 16.9569 67.792V68.608L16.8249 68.308C17.0009 67.884 17.2729 67.564 17.6409 67.348C18.0169 67.124 18.4409 67.012 18.9129 67.012C19.3849 67.012 19.7729 67.1 20.0769 67.276C20.3809 67.452 20.6089 67.72 20.7609 68.08C20.9129 68.432 20.9889 68.88 20.9889 69.424V72.328C20.9889 72.576 20.9249 72.768 20.7969 72.904C20.6689 73.032 20.4849 73.096 20.2449 73.096C20.0049 73.096 19.8169 73.032 19.6809 72.904C19.5529 72.768 19.4889 72.576 19.4889 72.328V69.496C19.4889 69.04 19.4009 68.708 19.2249 68.5C19.0569 68.292 18.7929 68.188 18.4329 68.188C17.9929 68.188 17.6409 68.328 17.3769 68.608C17.1209 68.88 16.9929 69.244 16.9929 69.7V72.328C16.9929 72.84 16.7409 73.096 16.2369 73.096ZM23.2564 73.084C23.0164 73.084 22.8324 73.012 22.7044 72.868C22.5764 72.724 22.5124 72.524 22.5124 72.268V67.864C22.5124 67.6 22.5764 67.4 22.7044 67.264C22.8324 67.12 23.0164 67.048 23.2564 67.048C23.4964 67.048 23.6804 67.12 23.8084 67.264C23.9444 67.4 24.0124 67.6 24.0124 67.864V72.268C24.0124 72.524 23.9484 72.724 23.8204 72.868C23.6924 73.012 23.5044 73.084 23.2564 73.084ZM23.2564 65.932C22.9764 65.932 22.7564 65.864 22.5964 65.728C22.4444 65.584 22.3684 65.388 22.3684 65.14C22.3684 64.884 22.4444 64.688 22.5964 64.552C22.7564 64.416 22.9764 64.348 23.2564 64.348C23.5444 64.348 23.7644 64.416 23.9164 64.552C24.0684 64.688 24.1444 64.884 24.1444 65.14C24.1444 65.388 24.0684 65.584 23.9164 65.728C23.7644 65.864 23.5444 65.932 23.2564 65.932ZM26.723 73.096C26.483 73.096 26.295 73.032 26.159 72.904C26.031 72.768 25.967 72.576 25.967 72.328V68.26H25.415C25.223 68.26 25.075 68.212 24.971 68.116C24.867 68.012 24.815 67.872 24.815 67.696C24.815 67.512 24.867 67.372 24.971 67.276C25.075 67.18 25.223 67.132 25.415 67.132H26.399L25.967 67.528V67.12C25.967 66.296 26.175 65.68 26.591 65.272C27.007 64.856 27.607 64.612 28.391 64.54L28.799 64.504C28.959 64.488 29.087 64.516 29.183 64.588C29.279 64.652 29.343 64.74 29.375 64.852C29.407 64.956 29.411 65.064 29.387 65.176C29.363 65.288 29.311 65.388 29.231 65.476C29.159 65.556 29.063 65.6 28.943 65.608L28.775 65.62C28.319 65.652 27.987 65.768 27.779 65.968C27.571 66.168 27.467 66.472 27.467 66.88V67.324L27.275 67.132H28.487C28.679 67.132 28.827 67.18 28.931 67.276C29.035 67.372 29.087 67.512 29.087 67.696C29.087 67.872 29.035 68.012 28.931 68.116C28.827 68.212 28.679 68.26 28.487 68.26H27.467V72.328C27.467 72.84 27.219 73.096 26.723 73.096ZM32.4658 73.12C31.8578 73.12 31.3298 72.996 30.8818 72.748C30.4338 72.5 30.0858 72.148 29.8378 71.692C29.5898 71.228 29.4658 70.684 29.4658 70.06C29.4658 69.588 29.5338 69.168 29.6698 68.8C29.8138 68.424 30.0178 68.104 30.2818 67.84C30.5458 67.568 30.8618 67.364 31.2298 67.228C31.5978 67.084 32.0098 67.012 32.4658 67.012C33.0738 67.012 33.6018 67.136 34.0498 67.384C34.4978 67.632 34.8458 67.984 35.0938 68.44C35.3418 68.896 35.4658 69.436 35.4658 70.06C35.4658 70.532 35.3938 70.956 35.2498 71.332C35.1138 71.708 34.9138 72.032 34.6498 72.304C34.3858 72.568 34.0698 72.772 33.7018 72.916C33.3338 73.052 32.9218 73.12 32.4658 73.12ZM32.4658 71.98C32.7618 71.98 33.0218 71.908 33.2458 71.764C33.4698 71.62 33.6418 71.408 33.7618 71.128C33.8898 70.84 33.9538 70.484 33.9538 70.06C33.9538 69.42 33.8178 68.944 33.5458 68.632C33.2738 68.312 32.9138 68.152 32.4658 68.152C32.1698 68.152 31.9098 68.224 31.6858 68.368C31.4618 68.504 31.2858 68.716 31.1578 69.004C31.0378 69.284 30.9778 69.636 30.9778 70.06C30.9778 70.692 31.1138 71.172 31.3858 71.5C31.6578 71.82 32.0178 71.98 32.4658 71.98ZM37.4718 73.096C37.2238 73.096 37.0318 73.032 36.8958 72.904C36.7678 72.768 36.7038 72.576 36.7038 72.328V67.792C36.7038 67.544 36.7678 67.356 36.8958 67.228C37.0238 67.1 37.2038 67.036 37.4358 67.036C37.6678 67.036 37.8478 67.1 37.9758 67.228C38.1038 67.356 38.1678 67.544 38.1678 67.792V68.548H38.0478C38.1598 68.068 38.3798 67.704 38.7078 67.456C39.0358 67.208 39.4718 67.06 40.0158 67.012C40.1838 66.996 40.3158 67.04 40.4118 67.144C40.5158 67.24 40.5758 67.392 40.5918 67.6C40.6078 67.8 40.5598 67.964 40.4478 68.092C40.3438 68.212 40.1838 68.284 39.9678 68.308L39.7038 68.332C39.2158 68.38 38.8478 68.532 38.5998 68.788C38.3518 69.036 38.2278 69.388 38.2278 69.844V72.328C38.2278 72.576 38.1638 72.768 38.0358 72.904C37.9078 73.032 37.7198 73.096 37.4718 73.096ZM42.171 73.096C41.931 73.096 41.747 73.032 41.619 72.904C41.491 72.768 41.427 72.576 41.427 72.328V67.792C41.427 67.544 41.491 67.356 41.619 67.228C41.747 67.1 41.927 67.036 42.159 67.036C42.391 67.036 42.571 67.1 42.699 67.228C42.827 67.356 42.891 67.544 42.891 67.792V68.668L42.759 68.308C42.919 67.908 43.167 67.592 43.503 67.36C43.839 67.128 44.239 67.012 44.703 67.012C45.175 67.012 45.563 67.124 45.867 67.348C46.171 67.572 46.383 67.916 46.503 68.38H46.335C46.495 67.956 46.759 67.624 47.127 67.384C47.495 67.136 47.919 67.012 48.399 67.012C48.847 67.012 49.215 67.1 49.503 67.276C49.799 67.452 50.019 67.72 50.163 68.08C50.307 68.432 50.379 68.88 50.379 69.424V72.328C50.379 72.576 50.311 72.768 50.175 72.904C50.047 73.032 49.863 73.096 49.623 73.096C49.383 73.096 49.199 73.032 49.071 72.904C48.943 72.768 48.879 72.576 48.879 72.328V69.484C48.879 69.036 48.803 68.708 48.651 68.5C48.507 68.292 48.259 68.188 47.907 68.188C47.515 68.188 47.207 68.328 46.983 68.608C46.759 68.88 46.647 69.26 46.647 69.748V72.328C46.647 72.576 46.583 72.768 46.455 72.904C46.327 73.032 46.143 73.096 45.903 73.096C45.663 73.096 45.475 73.032 45.339 72.904C45.211 72.768 45.147 72.576 45.147 72.328V69.484C45.147 69.036 45.071 68.708 44.919 68.5C44.775 68.292 44.531 68.188 44.187 68.188C43.795 68.188 43.487 68.328 43.263 68.608C43.039 68.88 42.927 69.26 42.927 69.748V72.328C42.927 72.84 42.675 73.096 42.171 73.096Z" fill="#454545"/>
<defs>
<filter id="filter0_f_1018_8154" x="-42" y="-14" width="118" height="118" filterUnits="userSpaceOnUse" color-interpolation-filters="sRGB">
<feFlood flood-opacity="0" result="BackgroundImageFix"/>
<feBlend mode="normal" in="SourceGraphic" in2="BackgroundImageFix" result="shape"/>
<feGaussianBlur stdDeviation="16" result="effect1_foregroundBlur_1018_8154"/>
</filter>
<filter id="filter1_f_1018_8154" x="-56" y="-62" width="67.4277" height="85.4253" filterUnits="userSpaceOnUse" color-interpolation-filters="sRGB">
<feFlood flood-opacity="0" result="BackgroundImageFix"/>
<feBlend mode="normal" in="SourceGraphic" in2="BackgroundImageFix" result="shape"/>
<feGaussianBlur stdDeviation="6" result="effect1_foregroundBlur_1018_8154"/>
</filter>
<clipPath id="clip0_1018_8154">
<rect width="57" height="57" rx="28.5" fill="white"/>
</clipPath>
<clipPath id="clip1_1018_8154">
<rect width="24" height="24" fill="white" transform="translate(17 17)"/>
</clipPath>
</defs>
</svg>
