<svg width="58" height="57" viewBox="0 0 58 57" fill="none" xmlns="http://www.w3.org/2000/svg">
<g clip-path="url(#clip0_1018_8196)">
<rect x="0.5" width="57" height="57" rx="28.5" fill="#FF05AA"/>
<g filter="url(#filter0_f_1018_8196)">
<circle cx="10" cy="45" r="27" fill="url(#paint0_radial_1018_8196)" fill-opacity="0.8"/>
</g>
<g clip-path="url(#clip1_1018_8196)">
<path fill-rule="evenodd" clip-rule="evenodd" d="M28.563 19.4691C28.809 19.2724 29.1108 19.1581 29.4254 19.1425C29.7401 19.1269 30.0517 19.2107 30.316 19.3821L30.437 19.4691L34.749 22.9191C34.9594 23.0873 35.1336 23.2962 35.2613 23.5333C35.389 23.7705 35.4675 24.0309 35.492 24.2991L35.5 24.4801V36.0001H36.5V27.5001C36.5 27.3831 36.541 27.2698 36.6159 27.1799C36.6908 27.09 36.7949 27.0292 36.91 27.0081L37 27.0001H37.5C38.0046 27 38.4906 27.1905 38.8605 27.5336C39.2305 27.8767 39.4572 28.347 39.495 28.8501L39.5 29.0001V36.9001C39.4999 37.171 39.3998 37.4323 39.219 37.634C39.0382 37.8357 38.7893 37.9636 38.52 37.9931L38.4 38.0001H20.6C20.3289 38.0003 20.0674 37.9003 19.8655 37.7195C19.6636 37.5386 19.5356 37.2896 19.506 37.0201L19.5 36.9001V29.0001C19.4998 28.4956 19.6904 28.0096 20.0335 27.6396C20.3766 27.2696 20.8468 27.043 21.35 27.0051L21.5 27.0001H22C22.117 27.0001 22.2304 27.0411 22.3203 27.116C22.4102 27.1909 22.4709 27.295 22.492 27.4101L22.5 27.5001V36.0001H23.5V24.4801C23.5 24.2108 23.5544 23.9443 23.6599 23.6965C23.7654 23.4487 23.9198 23.2248 24.114 23.0381L24.251 22.9181L28.563 19.4691ZM29.5 25.9991C28.9696 25.9991 28.4609 26.2098 28.0858 26.5849C27.7107 26.96 27.5 27.4687 27.5 27.9991C27.5 28.5296 27.7107 29.0383 28.0858 29.4133C28.4609 29.7884 28.9696 29.9991 29.5 29.9991C30.0304 29.9991 30.5391 29.7884 30.9142 29.4133C31.2893 29.0383 31.5 28.5296 31.5 27.9991C31.5 27.4687 31.2893 26.96 30.9142 26.5849C30.5391 26.2098 30.0304 25.9991 29.5 25.9991Z" fill="white"/>
</g>
<g filter="url(#filter1_f_1018_8196)">
<rect x="-6.80078" y="-50" width="8" height="67.8758" transform="rotate(32.7288 -6.80078 -50)" fill="#FAFAFA"/>
</g>
</g>
<defs>
<filter id="filter0_f_1018_8196" x="-49" y="-14" width="118" height="118" filterUnits="userSpaceOnUse" color-interpolation-filters="sRGB">
<feFlood flood-opacity="0" result="BackgroundImageFix"/>
<feBlend mode="normal" in="SourceGraphic" in2="BackgroundImageFix" result="shape"/>
<feGaussianBlur stdDeviation="16" result="effect1_foregroundBlur_1018_8196"/>
</filter>
<filter id="filter1_f_1018_8196" x="-55.499" y="-62" width="67.4287" height="85.4248" filterUnits="userSpaceOnUse" color-interpolation-filters="sRGB">
<feFlood flood-opacity="0" result="BackgroundImageFix"/>
<feBlend mode="normal" in="SourceGraphic" in2="BackgroundImageFix" result="shape"/>
<feGaussianBlur stdDeviation="6" result="effect1_foregroundBlur_1018_8196"/>
</filter>
<radialGradient id="paint0_radial_1018_8196" cx="0" cy="0" r="1" gradientUnits="userSpaceOnUse" gradientTransform="translate(10 45) rotate(90) scale(27)">
<stop stop-color="white"/>
<stop offset="1" stop-color="white" stop-opacity="0"/>
</radialGradient>
<clipPath id="clip0_1018_8196">
<rect x="0.5" width="57" height="57" rx="28.5" fill="white"/>
</clipPath>
<clipPath id="clip1_1018_8196">
<rect width="24" height="24" fill="white" transform="translate(17.5 17)"/>
</clipPath>
</defs>
</svg>
