<svg width="20" height="16" viewBox="0 0 20 16" fill="none" xmlns="http://www.w3.org/2000/svg">
<rect width="20" height="16" rx="2.66667" fill="#121212"/>
<path d="M7.24148 5.18182H8.29545V8.98295C8.29545 9.39962 8.19697 9.7661 8 10.0824C7.80492 10.3987 7.5303 10.6458 7.17614 10.8239C6.82197 11 6.40814 11.0881 5.93466 11.0881C5.45928 11.0881 5.04451 11 4.69034 10.8239C4.33617 10.6458 4.06155 10.3987 3.86648 10.0824C3.6714 9.7661 3.57386 9.39962 3.57386 8.98295V5.18182H4.62784V8.89489C4.62784 9.13731 4.68087 9.35322 4.78693 9.54261C4.89489 9.73201 5.0464 9.88068 5.24148 9.98864C5.43655 10.0947 5.66761 10.1477 5.93466 10.1477C6.2017 10.1477 6.43277 10.0947 6.62784 9.98864C6.82481 9.88068 6.97633 9.73201 7.08239 9.54261C7.18845 9.35322 7.24148 9.13731 7.24148 8.89489V5.18182ZM9.44105 11V5.18182H11.6229C12.0698 5.18182 12.4448 5.26515 12.7479 5.43182C13.0528 5.59848 13.2829 5.82765 13.4382 6.11932C13.5954 6.40909 13.674 6.73864 13.674 7.10795C13.674 7.48106 13.5954 7.8125 13.4382 8.10227C13.281 8.39205 13.049 8.62027 12.7422 8.78693C12.4354 8.9517 12.0575 9.03409 11.6087 9.03409H10.1626V8.16761H11.4666C11.728 8.16761 11.942 8.12216 12.1087 8.03125C12.2753 7.94034 12.3984 7.81534 12.478 7.65625C12.5594 7.49716 12.6001 7.31439 12.6001 7.10795C12.6001 6.90152 12.5594 6.7197 12.478 6.5625C12.3984 6.4053 12.2744 6.28314 12.1058 6.19602C11.9392 6.10701 11.7242 6.0625 11.4609 6.0625H10.495V11H9.44105ZM15.6435 5.18182V11H14.5895V5.18182H15.6435Z" fill="#FAFAFA"/>
</svg>
