<svg width="341" height="449" viewBox="0 0 341 449" fill="none" xmlns="http://www.w3.org/2000/svg">
<g clip-path="url(#clip0_1340_8851)">
<path d="M170.164 445.053C263.998 445.053 340.066 368.985 340.066 275.151C340.066 181.317 263.998 105.249 170.164 105.249C76.3295 105.249 0.261719 181.317 0.261719 275.151C0.261719 368.985 76.3295 445.053 170.164 445.053Z" fill="#0590FF"/>
<path opacity="0.86" d="M170.164 445.053C263.998 445.053 340.066 368.985 340.066 275.151C340.066 181.317 263.998 105.249 170.164 105.249C76.3295 105.249 0.261719 181.317 0.261719 275.151C0.261719 368.985 76.3295 445.053 170.164 445.053Z" fill="white"/>
<path opacity="0.1" d="M80.7188 277.764L116.135 328.173L56.9192 338.024L37.0859 311.262L80.7188 277.764Z" fill="#0590FF"/>
<path opacity="0.1" d="M308.798 200.246L284.999 180.43L258.555 217.852L266.827 227.423L308.798 200.246Z" fill="#0590FF"/>
<path opacity="0.1" d="M65.5137 217.852L87.3991 201.514L105.858 231.508L84.5591 242.696L65.5137 217.852Z" fill="#0590FF"/>
<path opacity="0.1" d="M194.678 399.041L219.863 378.546L235.418 399.041L207.37 418.212L194.678 399.041Z" fill="#0590FF"/>
<path opacity="0.1" d="M93.8438 250.955L116.699 234.256L134.929 258.227L125.013 268.355L139.783 287.409L153.44 277.764L169.353 297.893L139.783 319.709L93.8438 250.955Z" fill="#0590FF"/>
<path d="M339.816 284.431L254.7 342.058L293.907 391.571C292.742 392.816 291.553 394.038 290.348 395.243L250.561 344.998L181.428 396.533L212.047 439.851C210.284 440.301 208.51 440.718 206.725 441.106L175.864 397.439L132.563 337.058L56.7564 352.33L62.8216 406.85C60.9068 405.29 59.0315 403.69 57.19 402.046L51.5528 351.367L1.20658 293.126C0.902478 290.299 0.677215 287.449 0.519531 284.583L54.9317 347.532L129.319 332.541L24.9155 186.959C25.8616 185.399 26.8358 183.856 27.8326 182.33L134.77 331.443L135.356 331.325L213.365 276.434L158.108 204.699L166.088 105.302C167.445 105.268 168.802 105.251 170.165 105.251C170.503 105.251 170.841 105.251 171.179 105.257L163.317 203.156L217.515 273.511L322.426 199.692C323.191 201.224 323.929 202.773 324.644 204.333L137.862 335.757L178.488 392.405L251.479 337.992L251.547 338.077L340.035 278.163C340.002 280.263 339.928 282.347 339.816 284.431Z" fill="white"/>
<path d="M170.159 3.37866C116.681 3.37866 73.5 46.6038 73.5 99.9195C73.5 116.684 79.8659 135.565 85.2931 146.2C103.116 181.126 169.085 278.782 169.085 278.782C169.572 279.598 170.754 279.598 171.241 278.782C171.241 278.782 237.21 181.126 255.033 146.2C260.46 135.565 266.826 116.684 266.826 99.9195C266.826 46.6021 223.645 3.37866 170.167 3.37866H170.159Z" fill="#0590FF"/>
<path opacity="0.12" d="M170.159 3.37866C116.681 3.37866 73.5 46.6038 73.5 99.9195C73.5 116.684 79.8659 135.565 85.2931 146.2C103.116 181.126 169.085 278.782 169.085 278.782C169.572 279.598 170.754 279.598 171.241 278.782C171.241 278.782 237.21 181.126 255.033 146.2C260.46 135.565 266.826 116.684 266.826 99.9195C266.826 46.6021 223.645 3.37866 170.167 3.37866H170.159Z" fill="white"/>
<path d="M168.083 18.5185C168.776 18.501 169.463 18.5185 170.161 18.5185C215.209 18.5185 251.653 55.3501 251.025 100.543C250.419 144.101 214.87 179.649 171.312 180.255C126.12 180.884 89.2891 144.439 89.2891 99.3917C89.2891 55.425 124.383 19.6268 168.082 18.5191L168.083 18.5185Z" fill="white"/>
<path d="M226.37 164.654C210.364 167.71 178.139 189.697 159.906 179.37C159.874 179.35 159.994 179.373 161.528 158.452C161.834 154.281 162.763 151.196 164.155 148.567C165.413 146.187 165.66 141.406 165.692 140.525C165.692 140.515 165.689 140.505 165.686 140.502C165.682 140.495 165.676 140.489 165.669 140.489C165.66 140.486 165.653 140.486 165.643 140.489C165.637 140.492 165.63 140.499 165.627 140.505C165.25 141.168 163.378 144.438 160.992 148.186C159.015 151.284 156.675 154.723 154.578 157.213C149.634 163.081 140.675 165.086 134.499 162.466C128.32 159.84 126.158 155.822 123.684 148.414C121.415 141.604 118.945 130.34 118.756 129.476C118.753 129.469 118.753 129.463 118.756 129.459C118.756 129.453 118.76 129.45 118.763 129.443C118.766 129.437 118.773 129.433 118.782 129.433C118.786 129.433 118.792 129.43 118.795 129.433C119.647 129.619 130.472 131.79 131.707 122.087C131.71 122.081 131.71 122.074 131.72 122.071C131.723 122.064 131.73 122.061 131.736 122.061C131.739 122.058 131.746 122.058 131.752 122.061C131.759 122.061 131.762 122.064 131.772 122.071L140.497 132.938C140.5 132.941 140.503 132.944 140.51 132.947C140.513 132.947 140.519 132.951 140.523 132.951C140.532 132.951 140.536 132.947 140.542 132.947C140.545 132.944 140.549 132.941 140.552 132.938C140.766 132.648 142.278 130.584 144.846 126.024C147.628 121.079 151.178 115.368 155.661 105.944C160.143 96.5176 163.716 94.4697 173.884 89.1094C177.021 87.4548 180.775 85.3192 184.231 83.359L195.195 77.0691C195.198 77.0691 195.205 77.0658 195.208 77.0691C195.497 77.0918 207.892 78.0053 210.024 78.9219C212.186 79.8451 212.339 82.6276 219.136 86.4894C225.933 90.3544 231.644 94.525 237.206 104.254C242.765 113.983 250.335 129.274 253.115 139.156C255.894 149.041 259.141 158.153 251.106 163.253C243.412 168.136 233.881 164.934 233.088 164.657C233.084 164.654 233.078 164.654 233.071 164.654C233.065 164.657 233.062 164.657 233.052 164.664C233.049 164.667 233.045 164.67 233.042 164.677C233.042 164.68 233.042 164.69 233.042 164.696C233.234 166.172 229.97 159.146 230.312 160.599C230.396 160.95 229.933 162.484 230.03 162.852C225.657 155.112 238.738 162.294 226.37 164.654Z" fill="#99D2FF"/>
<path d="M189.681 87.8644C190.08 87.8644 190.509 87.8482 190.955 87.8254C198.057 87.4418 201.701 84.409 202.898 83.4111C203.031 83.2778 203.18 83.1673 203.343 83.0762C203.349 83.0762 203.359 83.0762 203.366 83.073C203.372 83.0665 203.375 83.0632 203.379 83.0567C203.379 83.0502 203.379 83.0437 203.379 83.0372C203.379 83.0307 203.375 83.021 203.369 83.0177L198.851 78.8472C198.847 78.8472 198.821 78.8472 198.782 78.8472C196.24 78.8829 193.705 79.0585 191.186 79.3705C189.105 80.5765 186.657 81.8345 184.229 83.3623C183.859 84.5748 183.956 85.55 184.499 86.2749C185.289 87.3313 187.031 87.8677 189.681 87.8677V87.8644Z" fill="#B43F1E"/>
<path d="M207.464 80.7455C207.468 80.752 207.468 80.7585 207.464 80.7683C207.464 80.7748 207.461 80.7813 207.455 80.7845C207.003 81.1519 198.581 87.8156 186.651 83.333C186.644 83.3265 186.634 83.32 186.631 83.3168C186.628 83.3103 186.625 83.3038 186.625 83.2973L186.761 81.4119L187.008 78.0248C187.008 78.0215 187.008 78.015 187.005 78.0117C187.005 78.0085 187.002 78.0052 187.002 78.002C186.999 77.9987 186.995 77.9955 186.986 77.989C186.982 77.989 186.979 77.9857 186.976 77.9857C186.511 77.9532 181.469 77.4494 177.133 71.1172C172.572 64.4729 174.35 60.0748 173.733 53.8173C173.499 51.4768 173.209 48.7853 173.187 46.0288C173.154 41.4129 173.885 36.5759 176.98 32.6622C181.921 26.408 188.487 23.0858 200.456 24.4738C212.425 25.8651 221.816 33.7349 218.89 50.3326C218.89 50.3391 218.89 50.3489 218.897 50.3586C219.294 50.973 219.511 51.6849 219.521 52.4163C219.521 52.426 219.524 52.4325 219.528 52.4358C220.379 53.7198 221.111 56.0602 218.991 59.3856C216.589 63.1499 213.634 64.2453 212.09 64.5931C211.508 64.7264 211.118 64.7817 211.047 64.7914C211.04 64.7914 211.037 64.7947 211.03 64.7979C210.829 64.9832 206.974 68.5459 205.862 70.9026C205.803 71.0294 205.751 71.1562 205.706 71.2764C204.874 73.5811 207.302 80.3002 207.464 80.7455Z" fill="#D99572"/>
<path d="M214.695 27.7148C216.925 27.7148 219.103 27.055 220.959 25.8132C222.812 24.5747 224.258 22.8129 225.11 20.7552C225.965 18.6976 226.186 16.4286 225.75 14.241C225.318 12.0565 224.242 10.0476 222.666 8.47109C221.089 6.89128 219.08 5.81857 216.892 5.38299C214.708 4.95066 212.442 5.1717 210.381 6.02662C208.321 6.87828 206.559 8.32481 205.323 10.1777C204.085 12.0305 203.422 14.2117 203.422 16.4416C203.425 19.429 204.612 22.296 206.725 24.4089C208.841 26.5219 211.704 27.7116 214.695 27.7148Z" fill="#333333"/>
<path d="M214.696 27.6792C208.487 27.6792 203.455 22.6472 203.455 16.4418C203.455 10.2363 208.487 5.20435 214.696 5.20435C220.901 5.20435 225.933 10.2363 225.933 16.4418C225.933 22.6472 220.901 27.6792 214.696 27.6792Z" fill="#171717"/>
<path d="M185.791 30.4357C185.785 30.4292 185.781 30.426 185.775 30.426C185.768 30.4227 185.762 30.4227 185.755 30.426C185.251 30.5657 175.766 33.4491 173.227 45.8405C173.224 45.8502 173.221 45.8567 173.214 45.8632C173.211 45.8697 173.198 45.8762 173.188 45.8762C173.182 45.8762 173.172 45.8697 173.166 45.8632C173.159 45.8567 173.156 45.847 173.159 45.8405C172.906 44.1989 171.293 32.3373 176.816 26.0864C182.758 19.3673 198.208 14.1956 207.863 18.9837C217.517 23.7752 221.688 30.5722 221.915 39.9893C222.13 48.8245 219.835 52.0297 219.549 52.3937C219.546 52.397 219.542 52.4002 219.536 52.4035C219.533 52.4035 219.529 52.4067 219.523 52.4067C219.52 52.4067 219.51 52.4035 219.507 52.4035C219.5 52.4002 219.497 52.397 219.494 52.3937C219.286 52.1109 217.8 50.2678 214.679 49.3414C214.673 49.3382 214.666 49.3382 214.663 49.3414C214.657 49.3414 214.65 49.3446 214.647 49.3544C214.319 49.6925 208.617 55.6574 208.016 55.2835C207.398 54.9032 207.473 47.9469 207.092 47.3325C206.702 46.7149 199.057 44.784 193.885 39.2222C188.928 33.8879 186.019 30.686 185.791 30.4357Z" fill="#333333"/>
<path d="M190.886 53.5053C190.815 52.5724 191.257 51.7792 191.875 51.7337C192.492 51.6882 193.048 52.4066 193.116 53.3428C193.188 54.2725 192.743 55.0689 192.125 55.1144C191.507 55.1599 190.952 54.4415 190.886 53.5053Z" fill="#333333"/>
<path d="M179.15 54.0058C179.081 53.0696 179.523 52.2797 180.141 52.2342C180.759 52.1887 181.314 52.9071 181.383 53.8433C181.448 54.7762 181.009 55.5694 180.388 55.6149C179.774 55.6604 179.218 54.942 179.15 54.0058Z" fill="#333333"/>
<path d="M197.511 46.2859C196.715 46.4094 195.545 45.3595 192.343 45.4375C189.138 45.5123 187.824 46.598 187.359 46.2859C186.895 45.9804 186.511 45.3172 186.781 45.0474C187.054 44.7776 189.368 43.6171 192.69 43.6984C196.003 43.7764 198.243 46.1721 197.511 46.2859Z" fill="#171717"/>
<path d="M182.8 45.2065C182.911 45.3658 183.031 46.445 182.758 46.367C181.393 45.9704 179.966 45.8306 178.549 45.9444C176.614 46.1719 175.074 47.4104 174.921 47.0626C174.768 46.7148 176.657 45.0212 178.243 44.6734C179.826 44.3191 182.453 44.7059 182.8 45.2065Z" fill="#171717"/>
<path d="M184.419 53.0049C184.419 53.0049 182.953 56.8699 182.293 58.1409C181.639 59.4119 181.639 60.5333 183.954 62.2692" stroke="#6D3516" stroke-width="0.975189" stroke-linecap="round" stroke-linejoin="round"/>
<path d="M183.613 65.7862C183.613 65.7862 187.937 66.7093 191.802 64.785C195.667 62.8606 194.275 68.1851 188.174 68.8775" stroke="#6D3516" stroke-width="0.975189" stroke-linecap="round" stroke-linejoin="round"/>
<path d="M216.358 54.5911C216.358 54.5911 212.805 55.3615 212.262 59.1485" stroke="#6D3516" stroke-width="0.975189" stroke-linecap="round" stroke-linejoin="round"/>
<path d="M186.762 81.412C186.771 80.2711 186.856 79.1268 187.009 77.9891C187.009 77.9891 191.404 78.428 194.183 76.8026C196.858 75.2456 196.601 81.204 186.762 81.412Z" fill="#6D3516"/>
<path d="M187.01 77.9892C187.01 77.9892 191.405 78.4281 194.184 76.8027" stroke="#6D3516" stroke-width="0.975189" stroke-linecap="round" stroke-linejoin="round"/>
<path d="M224.408 148.516C224.408 142.261 225.025 135.617 225.025 135.617L227.314 134.694C227.138 150.138 226.478 150.411 232.365 159.646C232.365 159.646 232.661 161.57 233.171 164.099C232.04 163.501 230.802 162.835 229.501 162.188C223.949 159.408 224.408 154.773 224.408 148.516Z" fill="#B43F1E"/>
<path d="M227.875 147.507C227.813 155.621 228.451 157.208 233.125 164.541" stroke="#B43F1E" stroke-width="0.975189" stroke-linecap="round" stroke-linejoin="round"/>
<path d="M165.694 140.382C165.232 137.297 164.127 132.041 164.442 125.943C163.184 130.012 161.907 137.073 160.99 148.183C162.798 145.732 164.374 143.122 165.694 140.382Z" fill="#B43F1E"/>
<path d="M251.874 143.746C251.874 143.746 250.018 143.626 247.935 141.432C246.865 140.313 245.519 139.504 244.031 139.078C242.548 138.649 240.978 138.623 239.477 138.997" stroke="#B43F1E" stroke-width="0.975189" stroke-linecap="round" stroke-linejoin="round"/>
<path d="M140.523 132.974C140.523 132.974 144.73 136.439 146.586 139.455C147.85 141.604 148.939 143.853 149.83 146.178" stroke="#B43F1E" stroke-width="0.975189" stroke-linecap="round" stroke-linejoin="round"/>
<path d="M165.696 140.382C165.234 137.297 164.129 132.041 164.444 125.943C164.639 120.872 165.979 115.911 168.358 111.428" stroke="#B43F1E" stroke-width="0.975189" stroke-linecap="round" stroke-linejoin="round"/>
<path d="M181.336 136.793C181.336 136.793 176.469 144.786 169.52 146.753" stroke="#B43F1E" stroke-width="0.975189" stroke-linecap="round" stroke-linejoin="round"/>
<path d="M212.042 64.6581C212.049 64.6484 212.049 64.6451 212.049 64.6386C212.052 64.6321 212.049 64.6256 212.045 64.6191C212.042 64.6126 212.039 64.6093 212.032 64.6061C212.026 64.5996 212.019 64.5996 212.01 64.5996C208.499 64.8759 207.599 65.8186 205.898 70.7921C205.898 70.8018 205.898 70.8083 205.898 70.8148C205.902 70.8246 205.905 70.8278 205.911 70.8343C205.918 70.8376 205.928 70.8408 205.934 70.8408C205.941 70.8408 205.947 70.8376 205.954 70.8343C208.229 69.0302 210.274 66.9563 212.042 64.6581Z" fill="#333333"/>
<path d="M112.785 138.24L163.124 171.425C163.813 171.877 164.626 172.095 165.445 172.04L220.003 168.347C220.211 168.334 220.413 168.256 220.579 168.129C220.738 167.996 220.858 167.82 220.914 167.619L237.56 110.873C237.609 110.713 237.615 110.544 237.583 110.385C237.554 110.222 237.479 110.073 237.375 109.943C237.271 109.819 237.134 109.719 236.988 109.65C236.832 109.589 236.666 109.566 236.504 109.579L185.839 113.493C185.622 113.506 185.404 113.454 185.218 113.34L145.583 88.4497C145.356 88.3067 145.083 88.2579 144.823 88.3164C144.563 88.375 144.332 88.531 144.186 88.7553L134.252 104.115L124.477 115.69L118.506 127.903L112.489 136.835C112.346 137.063 112.297 137.336 112.352 137.599C112.408 137.863 112.564 138.09 112.785 138.24Z" fill="white"/>
<path d="M114.965 135.613C114.965 135.616 114.965 135.623 114.965 135.626C114.968 135.633 114.971 135.636 114.975 135.642C115.885 136.237 164.602 169.563 164.602 169.563C164.608 169.566 164.615 169.572 164.621 169.572L218.839 166.562C218.845 166.562 218.852 166.559 218.858 166.556C218.865 166.553 218.871 166.543 218.871 166.536L235.654 109.826C235.658 109.819 235.658 109.816 235.658 109.806C235.654 109.8 235.654 109.797 235.648 109.793L234.357 108.279C234.357 108.275 234.354 108.272 234.348 108.269C234.344 108.266 234.341 108.266 234.335 108.266C233.652 108.266 210.491 108.285 200.447 107.375C190.724 106.494 185.536 111.506 185.071 111.978C185.065 111.984 185.052 111.988 185.042 111.988C185.039 111.988 185.032 111.984 185.026 111.981C185.022 111.978 185.019 111.968 185.016 111.965C184.736 111.415 181.756 105.776 176.698 103.9C171.474 101.966 147.185 90.0003 146.262 89.5484C146.255 89.5452 146.249 89.5452 146.239 89.5452C146.233 89.5484 146.226 89.5517 146.22 89.5582C145.901 90.0198 141.152 96.9403 135.444 105.278L127.177 117.283L118.947 129.515C117.156 132.174 115.833 134.163 115.248 135.09C115.137 135.252 115.04 135.428 114.965 135.613Z" fill="#292929"/>
<path d="M218.87 166.595C218.877 166.595 218.883 166.591 218.887 166.588C218.893 166.585 218.896 166.578 218.9 166.572L235.686 109.835C235.689 109.829 235.689 109.826 235.686 109.819C235.686 109.809 235.683 109.806 235.676 109.803L234.373 108.269C234.366 108.265 234.36 108.262 234.353 108.262C234.35 108.259 234.343 108.259 234.337 108.259C234.33 108.262 234.327 108.262 234.324 108.269C234.314 108.272 234.311 108.275 234.311 108.282L217.339 164.654C217.336 164.66 217.333 164.667 217.326 164.67C217.323 164.673 217.317 164.677 217.31 164.677C217.008 164.683 215.392 164.719 212.912 164.719C207.731 164.719 199.832 164.576 191.646 163.906C187.06 163.533 182.623 163.191 178.806 163.191C171.561 163.191 167.406 164.495 165.375 167.414C165.372 167.417 165.368 167.42 165.362 167.424C165.355 167.427 165.346 167.427 165.339 167.427C165.333 167.424 165.329 167.42 165.323 167.417C165.32 167.414 165.316 167.407 165.316 167.398C164.959 166.052 164.351 164.778 163.525 163.65C162.062 161.517 159.111 158.302 153.36 155.104C144.21 150.02 121.898 138.493 115.279 135.08C115.276 135.076 115.27 135.076 115.266 135.076C115.26 135.076 115.25 135.076 115.247 135.08C115.244 135.086 115.237 135.09 115.234 135.096C114.919 135.6 114.925 135.619 114.932 135.645C115.042 135.993 159.527 166.162 164.598 169.598C164.604 169.601 164.611 169.605 164.617 169.605L218.87 166.595Z" fill="white"/>
<path d="M234.176 108.727L217.338 164.654C217.335 164.661 217.331 164.667 217.325 164.67C217.322 164.674 217.315 164.677 217.309 164.677C217.006 164.683 215.391 164.719 212.91 164.719C207.729 164.719 199.83 164.576 191.645 163.907C187.058 163.533 182.621 163.191 178.805 163.191C171.559 163.191 167.405 164.495 165.373 167.414C165.37 167.417 165.367 167.42 165.36 167.424C165.354 167.427 165.344 167.427 165.337 167.427C165.331 167.424 165.328 167.42 165.321 167.417C165.318 167.414 165.315 167.407 165.315 167.398C164.957 166.052 164.349 164.778 163.524 163.65C162.061 161.517 159.109 158.302 153.359 155.104C144.329 150.091 122.494 138.802 115.551 135.223" stroke="white" stroke-width="0.975189" stroke-linecap="round" stroke-linejoin="round"/>
<path d="M228.546 113.395C228.553 113.395 228.556 113.395 228.563 113.398C228.566 113.401 228.569 113.405 228.572 113.408C228.576 113.411 228.582 113.418 228.582 113.421C228.585 113.427 228.585 113.431 228.582 113.44L214.123 159.466C214.12 159.473 214.117 159.479 214.11 159.486C214.104 159.489 214.097 159.489 214.091 159.489C207.32 159.352 200.562 158.848 193.846 157.984C183.99 156.658 174.446 157.867 173.63 157.977C173.624 157.977 173.617 157.977 173.614 157.974C173.607 157.971 173.601 157.968 173.594 157.964C173.591 157.961 173.591 157.955 173.588 157.948C173.588 157.945 173.588 157.935 173.591 157.929L189.435 114.211C189.438 114.204 189.441 114.198 189.451 114.195C189.757 114.022 196.219 110.534 208.084 112.114C219.708 113.661 227.844 113.421 228.546 113.395Z" fill="white"/>
<path d="M184.951 112.404L165.33 167.479" stroke="white" stroke-width="0.975189" stroke-linecap="round" stroke-linejoin="round"/>
<path d="M159.906 102.739C155.96 101.361 152.222 99.4498 148.789 97.0605" stroke="white" stroke-width="0.975189" stroke-linecap="round" stroke-linejoin="round"/>
<path d="M157.473 107.606C157.473 107.606 151.336 106.097 146.125 102.392" stroke="white" stroke-width="0.975189" stroke-linecap="round" stroke-linejoin="round"/>
<path d="M155.154 112.352C151.097 111.087 147.206 109.335 143.568 107.138" stroke="white" stroke-width="0.975189" stroke-linecap="round" stroke-linejoin="round"/>
<path d="M152.262 118.726C148.206 117.458 144.315 115.709 140.674 113.512" stroke="white" stroke-width="0.975189" stroke-linecap="round" stroke-linejoin="round"/>
<path d="M168.942 137.489C168.942 137.489 163.153 130.77 152.263 126.836C141.37 122.903 135.701 120.114 135.701 120.114" stroke="white" stroke-width="0.975189" stroke-linecap="round" stroke-linejoin="round"/>
<path d="M164.772 145.245C164.772 145.245 158.983 138.526 148.093 134.592C137.2 130.649 131.531 127.87 131.531 127.87" stroke="white" stroke-width="0.975189" stroke-linecap="round" stroke-linejoin="round"/>
<path d="M179.465 112.91C179.468 112.917 179.471 112.92 179.471 112.927C179.475 112.936 179.471 112.943 179.471 112.946L171.735 131.072C171.732 131.075 171.728 131.078 171.725 131.081C171.722 131.088 171.715 131.088 171.712 131.091C171.706 131.091 171.702 131.091 171.696 131.091C171.686 131.088 171.683 131.085 171.68 131.081C167.255 127.398 162.223 124.515 156.811 122.558C156.808 122.558 156.805 122.555 156.801 122.552C156.795 122.545 156.795 122.542 156.792 122.539C156.792 122.532 156.785 122.529 156.785 122.523C156.792 122.519 156.792 122.516 156.795 122.51L165.679 105.769C165.682 105.762 165.685 105.756 165.692 105.756C165.702 105.753 165.708 105.749 165.715 105.749C171.049 106.279 175.974 108.844 179.465 112.91Z" fill="white"/>
<path d="M240.291 138.067C240.327 138.142 242.706 143.194 240.291 147.101C237.86 151.041 233.92 151.619 232.07 151.154C225.686 149.552 227.357 143.184 227.324 142.959C227.204 142.147 225.202 142.264 225 142.147C224.799 142.027 222.221 141.133 221.555 140.492C220.888 139.852 221.09 138.145 222.25 138.087H222.253L223.407 137.892C223.414 137.892 223.42 137.888 223.424 137.882C223.43 137.875 223.433 137.869 223.433 137.862C223.433 137.856 223.43 137.843 223.427 137.84C223.424 137.833 223.417 137.83 223.411 137.827C222.969 137.684 222.546 137.482 222.159 137.229C221.21 136.65 220.661 134.056 223.45 133.845C223.456 133.845 223.466 133.841 223.472 133.835C223.479 133.828 223.482 133.819 223.482 133.809C223.482 133.802 223.479 133.793 223.476 133.786C223.469 133.78 223.459 133.773 223.453 133.773C222.78 133.646 221.463 133.24 221.548 132.05C221.646 130.74 223.264 130.11 223.84 129.924C223.849 129.921 223.856 129.915 223.859 129.908C223.862 129.905 223.866 129.892 223.866 129.885C223.862 129.879 223.859 129.869 223.856 129.866C223.849 129.859 223.84 129.856 223.83 129.856C223.378 129.817 222.348 129.616 222.302 128.575C222.247 127.243 224.122 126.81 225.923 126.372C227.714 125.942 230.149 125.387 231.628 125.185C233.107 124.983 234.785 125.998 235.916 128.569C237.054 131.143 238.526 133.75 240.291 138.067Z" fill="#D99572"/>
<path d="M118.507 127.902L125.847 117.114L127.179 117.283C128.515 117.4 129.858 117.38 131.184 117.221C132.075 117.094 132.712 116.847 132.81 116.216C132.93 115.443 131.62 114.572 131.015 114.214C131.005 114.211 131.002 114.204 130.999 114.194C130.996 114.185 130.996 114.175 130.999 114.169C131.002 114.162 131.009 114.155 131.018 114.152C131.028 114.149 131.035 114.149 131.041 114.152C131.909 114.416 134.256 115.053 134.818 114.36C135.01 114.12 135.121 113.824 135.143 113.518C135.163 113.213 135.088 112.907 134.932 112.644C134.929 112.641 134.929 112.634 134.929 112.624C134.929 112.618 134.929 112.615 134.932 112.608C134.935 112.602 134.945 112.598 134.952 112.595C134.955 112.592 134.961 112.592 134.968 112.592C135.26 112.644 135.56 112.611 135.833 112.501C136.109 112.39 136.343 112.202 136.515 111.961C137.006 111.194 136.733 110.167 136.678 109.982C136.678 109.975 136.678 109.965 136.681 109.956C136.681 109.949 136.688 109.943 136.694 109.939C137.38 110.147 137.929 109.289 137.364 108.022C136.931 106.978 136.275 106.045 135.446 105.278C135.121 104.95 134.731 104.566 134.253 104.114C134.113 103.984 133.967 103.844 133.811 103.698C131.259 101.309 130.391 101.023 128.558 101.309C126.568 101.618 123.305 107.82 123.233 107.957C123.233 107.96 123.233 107.96 123.23 107.963C123.152 108.038 120.681 110.534 120.148 112.436C118.653 117.738 117.883 122.311 118.507 127.902Z" fill="#D99572"/>
<path d="M233.959 130.728C233.959 130.728 232.645 129.141 231.485 128.683C230.324 128.218 224.041 129.863 224.041 129.863" stroke="#6D3516" stroke-width="0.975189" stroke-linecap="round" stroke-linejoin="round"/>
<path d="M233.111 135.363C233.111 135.363 231.915 133.354 230.212 132.973C228.515 132.583 223.824 133.828 223.824 133.828" stroke="#6D3516" stroke-width="0.975189" stroke-linecap="round" stroke-linejoin="round"/>
<path d="M232.264 139.845C232.264 139.845 230.951 138.532 229.872 138.067C228.796 137.599 224.743 137.862 223.582 137.862" stroke="#6D3516" stroke-width="0.975189" stroke-linecap="round" stroke-linejoin="round"/>
<path d="M136.405 109.644C136.405 109.644 131.802 105.402 130.251 104.553C128.71 103.705 126.084 104.326 126.084 104.326" stroke="#6D3516" stroke-width="0.975189" stroke-linecap="round" stroke-linejoin="round"/>
<path d="M134.604 112.319C134.604 112.319 130.02 109.267 127.774 107.953C127.147 107.573 126.425 107.372 125.69 107.372C124.956 107.372 124.234 107.573 123.604 107.953" stroke="#6D3516" stroke-width="0.975189" stroke-linecap="round" stroke-linejoin="round"/>
<path d="M130.719 114.048C129.438 113.327 128.096 112.735 126.701 112.267C125.411 111.799 124.007 111.744 122.684 112.114" stroke="#6D3516" stroke-width="0.975189" stroke-linecap="round" stroke-linejoin="round"/>
<path d="M123.767 119.405L123.22 117.468C123.194 117.371 123.191 117.27 123.217 117.172C123.24 117.075 123.289 116.984 123.357 116.912C123.428 116.841 123.516 116.785 123.611 116.756C123.708 116.73 123.809 116.727 123.906 116.746C124.547 116.902 125.194 117.026 125.847 117.114" stroke="#6D3516" stroke-width="0.975189" stroke-linecap="round" stroke-linejoin="round"/>
</g>
<defs>
<clipPath id="clip0_1340_8851">
<rect width="339.804" height="448.895" fill="white" transform="translate(0.263672)"/>
</clipPath>
</defs>
</svg>
