<svg width="188" height="76" viewBox="0 0 188 76" fill="none" xmlns="http://www.w3.org/2000/svg">
<path d="M98.2189 42.6389C96.7922 42.6389 95.538 42.2822 94.4565 41.5688C93.3979 40.8555 92.696 39.9005 92.3509 38.7038L92.7306 37.8409V40.3607C92.7306 41.0741 92.5465 41.6264 92.1783 42.0176C91.8101 42.3857 91.2923 42.5698 90.625 42.5698C89.9346 42.5698 89.4053 42.3857 89.0372 42.0176C88.669 41.6264 88.4849 41.0741 88.4849 40.3607V19.8571C88.4849 19.1437 88.669 18.603 89.0372 18.2348C89.4053 17.8666 89.9346 17.6825 90.625 17.6825C91.3153 17.6825 91.8446 17.8666 92.2128 18.2348C92.604 18.603 92.7996 19.1437 92.7996 19.8571V28.8317H92.3854C92.7536 27.7042 93.4669 26.7952 94.5255 26.1048C95.584 25.4145 96.8152 25.0693 98.2189 25.0693C99.7147 25.0693 101.015 25.426 102.119 26.1394C103.224 26.8527 104.087 27.8652 104.708 29.1769C105.33 30.4656 105.64 32.0189 105.64 33.8368C105.64 35.6318 105.33 37.1966 104.708 38.5313C104.087 39.8429 103.212 40.8555 102.085 41.5688C100.98 42.2822 99.6917 42.6389 98.2189 42.6389ZM97.0108 39.3597C97.8622 39.3597 98.6101 39.1526 99.2544 38.7384C99.8988 38.3241 100.394 37.7143 100.739 36.9089C101.107 36.0805 101.291 35.0565 101.291 33.8368C101.291 31.9959 100.9 30.6267 100.117 29.7292C99.335 28.8087 98.2994 28.3485 97.0108 28.3485C96.1593 28.3485 95.4115 28.5556 94.7671 28.9698C94.1228 29.361 93.6165 29.9708 93.2483 30.7993C92.9032 31.6047 92.7306 32.6172 92.7306 33.8368C92.7306 35.6548 93.1218 37.0355 93.9042 37.979C94.6866 38.8994 95.7221 39.3597 97.0108 39.3597ZM115.292 42.6389C113.888 42.6389 112.726 42.3857 111.805 41.8795C110.885 41.3502 110.195 40.5678 109.734 39.5323C109.297 38.4967 109.079 37.2081 109.079 35.6663V27.313C109.079 26.5766 109.263 26.0358 109.631 25.6906C109.999 25.3224 110.528 25.1383 111.219 25.1383C111.909 25.1383 112.438 25.3224 112.806 25.6906C113.198 26.0358 113.393 26.5766 113.393 27.313V35.7353C113.393 36.9319 113.635 37.8179 114.118 38.3932C114.601 38.9685 115.372 39.2561 116.431 39.2561C117.581 39.2561 118.525 38.8649 119.261 38.0825C119.998 37.2771 120.366 36.2186 120.366 34.9069V27.313C120.366 26.5766 120.55 26.0358 120.918 25.6906C121.286 25.3224 121.816 25.1383 122.506 25.1383C123.196 25.1383 123.726 25.3224 124.094 25.6906C124.485 26.0358 124.681 26.5766 124.681 27.313V40.3607C124.681 41.8335 123.979 42.5698 122.575 42.5698C121.908 42.5698 121.39 42.3857 121.022 42.0176C120.654 41.6264 120.469 41.0741 120.469 40.3607V37.7373L120.953 38.7729C120.469 40.0155 119.733 40.9705 118.744 41.6379C117.777 42.3052 116.626 42.6389 115.292 42.6389ZM131.312 42.5698C130.621 42.5698 130.092 42.3857 129.724 42.0176C129.356 41.6264 129.171 41.0741 129.171 40.3607V19.8571C129.171 19.1437 129.356 18.603 129.724 18.2348C130.092 17.8666 130.621 17.6825 131.312 17.6825C132.002 17.6825 132.531 17.8666 132.899 18.2348C133.291 18.603 133.486 19.1437 133.486 19.8571V32.5942H133.555L139.251 26.5881C139.711 26.1278 140.114 25.7712 140.459 25.518C140.804 25.2649 141.276 25.1383 141.874 25.1383C142.472 25.1383 142.921 25.2994 143.22 25.6216C143.542 25.9207 143.703 26.2889 143.703 26.7262C143.703 27.1634 143.496 27.6006 143.082 28.0378L137.076 34.3891V32.5942L143.669 39.7049C144.083 40.1421 144.267 40.5908 144.221 41.0511C144.198 41.4883 144.014 41.8565 143.669 42.1556C143.324 42.4318 142.887 42.5698 142.357 42.5698C141.713 42.5698 141.195 42.4433 140.804 42.1901C140.436 41.937 140.022 41.5573 139.561 41.0511L133.555 34.7688H133.486V40.3607C133.486 41.8335 132.761 42.5698 131.312 42.5698ZM149.818 42.5353C149.127 42.5353 148.598 42.3282 148.23 41.914C147.862 41.4998 147.678 40.9245 147.678 40.1881V27.5201C147.678 26.7607 147.862 26.1854 148.23 25.7942C148.598 25.38 149.127 25.1729 149.818 25.1729C150.508 25.1729 151.037 25.38 151.405 25.7942C151.797 26.1854 151.992 26.7607 151.992 27.5201V40.1881C151.992 40.9245 151.808 41.4998 151.44 41.914C151.072 42.3282 150.531 42.5353 149.818 42.5353ZM149.818 21.9627C149.012 21.9627 148.379 21.7671 147.919 21.3759C147.482 20.9617 147.263 20.3979 147.263 19.6845C147.263 18.9481 147.482 18.3843 147.919 17.9931C148.379 17.6019 149.012 17.4063 149.818 17.4063C150.646 17.4063 151.279 17.6019 151.716 17.9931C152.153 18.3843 152.372 18.9481 152.372 19.6845C152.372 20.3979 152.153 20.9617 151.716 21.3759C151.279 21.7671 150.646 21.9627 149.818 21.9627ZM157.511 42.2937C157.074 42.2937 156.706 42.1901 156.407 41.983C156.13 41.7529 155.946 41.4653 155.854 41.1201C155.762 40.7749 155.762 40.4067 155.854 40.0155C155.969 39.6013 156.188 39.2101 156.51 38.8419L165.45 27.6236V28.6592H157.304C156.775 28.6592 156.361 28.5211 156.061 28.2449C155.785 27.9458 155.647 27.5431 155.647 27.0368C155.647 26.5075 155.785 26.1048 156.061 25.8287C156.361 25.5525 156.775 25.4145 157.304 25.4145H167.521C168.028 25.4145 168.442 25.5295 168.764 25.7597C169.086 25.9668 169.293 26.2429 169.385 26.5881C169.5 26.9333 169.512 27.3015 169.42 27.6927C169.328 28.0839 169.121 28.452 168.798 28.7972L159.686 40.1881V39.049H168.315C169.42 39.049 169.972 39.5898 169.972 40.6714C169.972 41.1776 169.822 41.5803 169.523 41.8795C169.247 42.1556 168.844 42.2937 168.315 42.2937H157.511ZM173.86 42.2937C173.423 42.2937 173.054 42.1901 172.755 41.983C172.479 41.7529 172.295 41.4653 172.203 41.1201C172.111 40.7749 172.111 40.4067 172.203 40.0155C172.318 39.6013 172.537 39.2101 172.859 38.8419L181.799 27.6236V28.6592H173.653C173.124 28.6592 172.709 28.5211 172.41 28.2449C172.134 27.9458 171.996 27.5431 171.996 27.0368C171.996 26.5075 172.134 26.1048 172.41 25.8287C172.709 25.5525 173.124 25.4145 173.653 25.4145H183.87C184.376 25.4145 184.791 25.5295 185.113 25.7597C185.435 25.9668 185.642 26.2429 185.734 26.5881C185.849 26.9333 185.861 27.3015 185.769 27.6927C185.676 28.0839 185.469 28.452 185.147 28.7972L176.035 40.1881V39.049H184.664C185.769 39.049 186.321 39.5898 186.321 40.6714C186.321 41.1776 186.171 41.5803 185.872 41.8795C185.596 42.1556 185.193 42.2937 184.664 42.2937H173.86Z" fill="#171A1C"/>
<mask id="mask0_1582_1102" style="mask-type:alpha" maskUnits="userSpaceOnUse" x="0" y="0" width="77" height="76">
<rect x="0.889648" y="0.188477" width="75.7458" height="75.7458" fill="#D9D9D9"/>
</mask>
<g mask="url(#mask0_1582_1102)">
<path d="M33.8984 26.7808C33.8984 24.3339 34.8687 21.9872 36.5957 20.2569C38.3227 18.5267 40.665 17.5547 43.1073 17.5547H61.525C62.1356 17.5547 62.7212 17.7977 63.153 18.2303C63.5847 18.6628 63.8273 19.2495 63.8273 19.8612V56.7656C63.8273 57.3773 63.5847 57.964 63.153 58.3965C62.7212 58.8291 62.1356 59.0721 61.525 59.0721H43.1073C40.665 59.0721 38.3227 60.0441 36.5957 61.7744C34.8687 63.5046 33.8984 65.8513 33.8984 68.2982" fill="url(#paint0_linear_1582_1102)"/>
<path d="M33.8984 26.7808C33.8984 24.3339 34.8687 21.9872 36.5957 20.2569C38.3227 18.5267 40.665 17.5547 43.1073 17.5547H61.525C62.1356 17.5547 62.7212 17.7977 63.153 18.2303C63.5847 18.6628 63.8273 19.2495 63.8273 19.8612V56.7656C63.8273 57.3773 63.5847 57.964 63.153 58.3965C62.7212 58.8291 62.1356 59.0721 61.525 59.0721H43.1073C40.665 59.0721 38.3227 60.0441 36.5957 61.7744C34.8687 63.5046 33.8984 65.8513 33.8984 68.2982" stroke="url(#paint1_linear_1582_1102)" stroke-width="0.492655" stroke-linecap="round" stroke-linejoin="round"/>
<path d="M3.96875 56.7656C3.96875 57.3773 4.2113 57.964 4.64305 58.3965C5.0748 58.8291 5.66038 59.0721 6.27097 59.0721H24.6887C27.131 59.0721 29.4734 60.0441 31.2004 61.7744C32.9274 63.5046 33.8976 65.8513 33.8976 68.2982V26.7808C33.8976 24.3339 32.9274 21.9872 31.2004 20.2569C29.4734 18.5267 27.131 17.5547 24.6887 17.5547H6.27097C5.66038 17.5547 5.0748 17.7977 4.64305 18.2303C4.2113 18.6628 3.96875 19.2495 3.96875 19.8612V56.7656Z" fill="url(#paint2_linear_1582_1102)" stroke="url(#paint3_linear_1582_1102)" stroke-width="0.492655" stroke-linecap="round" stroke-linejoin="round"/>
<path d="M43.751 17.0508C43.751 14.6039 44.7212 12.2572 46.4482 10.527C48.1752 8.79674 50.5175 7.82471 52.9598 7.82471H71.3776C71.9882 7.82471 72.5737 8.06772 73.0055 8.50027C73.4372 8.93283 73.6798 9.5195 73.6798 10.1312V47.0356C73.6798 47.6473 73.4372 48.234 73.0055 48.6666C72.5737 49.0991 71.9882 49.3421 71.3776 49.3421H52.9598C50.5175 49.3421 48.1752 50.3142 46.4482 52.0444C44.7212 53.7746 43.751 56.1213 43.751 58.5682" fill="url(#paint4_linear_1582_1102)" stroke="url(#paint5_linear_1582_1102)" stroke-width="0.492655" stroke-linecap="round" stroke-linejoin="round"/>
<path d="M13.8223 47.0356C13.8223 47.6473 14.0648 48.234 14.4966 48.6666C14.9283 49.0991 15.5139 49.3421 16.1245 49.3421H34.5422C36.9846 49.3421 39.3269 50.3142 41.0539 52.0444C42.7809 53.7746 43.7511 56.1213 43.7511 58.5682V17.0508C43.7511 14.6039 42.7809 12.2572 41.0539 10.527C39.3269 8.79674 36.9846 7.82471 34.5422 7.82471H16.1245C15.5139 7.82471 14.9283 8.06772 14.4966 8.50027C14.0648 8.93283 13.8223 9.5195 13.8223 10.1312V47.0356Z" fill="url(#paint6_linear_1582_1102)" stroke="url(#paint7_linear_1582_1102)" stroke-width="0.492655" stroke-linecap="round" stroke-linejoin="round"/>
</g>
<defs>
<linearGradient id="paint0_linear_1582_1102" x1="48.8628" y1="17.5547" x2="48.8628" y2="68.2982" gradientUnits="userSpaceOnUse">
<stop stop-color="#7E30E1"/>
<stop offset="1" stop-color="#8D48E4"/>
</linearGradient>
<linearGradient id="paint1_linear_1582_1102" x1="48.8628" y1="17.5547" x2="48.8628" y2="68.2982" gradientUnits="userSpaceOnUse">
<stop stop-color="#171A1C"/>
<stop offset="1" stop-color="#0D0D0D"/>
</linearGradient>
<linearGradient id="paint2_linear_1582_1102" x1="18.9332" y1="17.5547" x2="18.9332" y2="68.2982" gradientUnits="userSpaceOnUse">
<stop stop-color="#7E30E1"/>
<stop offset="1" stop-color="#8D48E4"/>
</linearGradient>
<linearGradient id="paint3_linear_1582_1102" x1="18.9332" y1="17.5547" x2="18.9332" y2="68.2982" gradientUnits="userSpaceOnUse">
<stop stop-color="#171A1C"/>
<stop offset="1" stop-color="#0D0D0D"/>
</linearGradient>
<linearGradient id="paint4_linear_1582_1102" x1="58.7154" y1="7.82471" x2="58.7154" y2="58.5682" gradientUnits="userSpaceOnUse">
<stop stop-color="#39A7FF"/>
<stop offset="1" stop-color="#66BBFF"/>
</linearGradient>
<linearGradient id="paint5_linear_1582_1102" x1="58.7154" y1="7.82471" x2="58.7154" y2="58.5682" gradientUnits="userSpaceOnUse">
<stop stop-color="#171A1C"/>
<stop offset="1" stop-color="#0D0D0D"/>
</linearGradient>
<linearGradient id="paint6_linear_1582_1102" x1="28.7867" y1="7.82471" x2="28.7867" y2="58.5682" gradientUnits="userSpaceOnUse">
<stop stop-color="#39A7FF"/>
<stop offset="1" stop-color="#66BBFF"/>
</linearGradient>
<linearGradient id="paint7_linear_1582_1102" x1="28.7867" y1="7.82471" x2="28.7867" y2="58.5682" gradientUnits="userSpaceOnUse">
<stop stop-color="#171A1C"/>
<stop offset="1" stop-color="#0D0D0D"/>
</linearGradient>
</defs>
</svg>
