<svg width="58" height="57" viewBox="0 0 58 57" fill="none" xmlns="http://www.w3.org/2000/svg">
<g clip-path="url(#clip0_3344_4584)">
<rect x="0.5" width="57" height="57" rx="28.5" fill="#FF9B05"/>
<g filter="url(#filter0_f_3344_4584)">
<circle cx="10" cy="45" r="27" fill="url(#paint0_radial_3344_4584)" fill-opacity="0.8"/>
</g>
<g clip-path="url(#clip1_3344_4584)">
<path fill-rule="evenodd" clip-rule="evenodd" d="M21.5 24C21.5 22.6739 22.0268 21.4021 22.9645 20.4645C23.9021 19.5268 25.1739 19 26.5 19C26.982 19 27.438 19.17 27.614 19.667C27.7522 20.0567 28.0077 20.3941 28.3454 20.6327C28.6831 20.8713 29.0865 20.9994 29.5 20.9994C29.9135 20.9994 30.3169 20.8713 30.6546 20.6327C30.9923 20.3941 31.2478 20.0567 31.386 19.667C31.563 19.17 32.019 19 32.5 19C33.8261 19 35.0979 19.5268 36.0355 20.4645C36.9732 21.4021 37.5 22.6739 37.5 24V24.5C37.5 24.8978 37.342 25.2794 37.0607 25.5607C36.7794 25.842 36.3978 26 36 26H33.5C33.5 26.77 33.424 27.554 33.938 28.197L35.966 30.732C36.959 31.9732 37.5 33.5154 37.5 35.105V36C37.5 36.7956 37.1839 37.5587 36.6213 38.1213C36.0587 38.6839 35.2956 39 34.5 39H24.5C23.7044 39 22.9413 38.6839 22.3787 38.1213C21.8161 37.5587 21.5 36.7956 21.5 36V35.105C21.5 33.5154 22.041 31.9732 23.034 30.732L25.062 28.197C25.576 27.554 25.5 26.771 25.5 26H23C22.6022 26 22.2206 25.842 21.9393 25.5607C21.658 25.2794 21.5 24.8978 21.5 24.5V24Z" fill="white"/>
</g>
<g filter="url(#filter1_f_3344_4584)">
<rect x="-6.80176" y="-50" width="8" height="67.8758" transform="rotate(32.7288 -6.80176 -50)" fill="#FAFAFA"/>
</g>
</g>
<defs>
<filter id="filter0_f_3344_4584" x="-49" y="-14" width="118" height="118" filterUnits="userSpaceOnUse" color-interpolation-filters="sRGB">
<feFlood flood-opacity="0" result="BackgroundImageFix"/>
<feBlend mode="normal" in="SourceGraphic" in2="BackgroundImageFix" result="shape"/>
<feGaussianBlur stdDeviation="16" result="effect1_foregroundBlur_3344_4584"/>
</filter>
<filter id="filter1_f_3344_4584" x="-55.5" y="-62" width="67.4277" height="85.4248" filterUnits="userSpaceOnUse" color-interpolation-filters="sRGB">
<feFlood flood-opacity="0" result="BackgroundImageFix"/>
<feBlend mode="normal" in="SourceGraphic" in2="BackgroundImageFix" result="shape"/>
<feGaussianBlur stdDeviation="6" result="effect1_foregroundBlur_3344_4584"/>
</filter>
<radialGradient id="paint0_radial_3344_4584" cx="0" cy="0" r="1" gradientUnits="userSpaceOnUse" gradientTransform="translate(10 45) rotate(90) scale(27)">
<stop stop-color="white"/>
<stop offset="1" stop-color="white" stop-opacity="0"/>
</radialGradient>
<clipPath id="clip0_3344_4584">
<rect x="0.5" width="57" height="57" rx="28.5" fill="white"/>
</clipPath>
<clipPath id="clip1_3344_4584">
<rect width="24" height="24" fill="white" transform="translate(17.5 17)"/>
</clipPath>
</defs>
</svg>
