<svg width="58" height="57" viewBox="0 0 58 57" fill="none" xmlns="http://www.w3.org/2000/svg">
<g clip-path="url(#clip0_3344_7472)">
<rect x="0.5" width="57" height="57" rx="28.5" fill="#00AF11"/>
<g filter="url(#filter0_f_3344_7472)">
<circle cx="10" cy="45" r="27" fill="url(#paint0_radial_3344_7472)" fill-opacity="0.8"/>
</g>
<path d="M36.5 20H22.5C21.4 20 20.5 20.9 20.5 22V36C20.5 37.1 21.4 38 22.5 38H36.5C37.6 38 38.5 37.1 38.5 36V22C38.5 20.9 37.6 20 36.5 20ZM24.5 24H26.5V26H24.5V24ZM24.5 28H26.5V30H24.5V28ZM24.5 32H26.5V34H24.5V32ZM34.5 34H28.5V32H34.5V34ZM34.5 30H28.5V28H34.5V30ZM34.5 26H28.5V24H34.5V26Z" fill="white"/>
<g filter="url(#filter1_f_3344_7472)">
<rect x="-6.80176" y="-50" width="8" height="67.8758" transform="rotate(32.7288 -6.80176 -50)" fill="#FAFAFA"/>
</g>
</g>
<defs>
<filter id="filter0_f_3344_7472" x="-49" y="-14" width="118" height="118" filterUnits="userSpaceOnUse" color-interpolation-filters="sRGB">
<feFlood flood-opacity="0" result="BackgroundImageFix"/>
<feBlend mode="normal" in="SourceGraphic" in2="BackgroundImageFix" result="shape"/>
<feGaussianBlur stdDeviation="16" result="effect1_foregroundBlur_3344_7472"/>
</filter>
<filter id="filter1_f_3344_7472" x="-55.5" y="-62" width="67.4277" height="85.4248" filterUnits="userSpaceOnUse" color-interpolation-filters="sRGB">
<feFlood flood-opacity="0" result="BackgroundImageFix"/>
<feBlend mode="normal" in="SourceGraphic" in2="BackgroundImageFix" result="shape"/>
<feGaussianBlur stdDeviation="6" result="effect1_foregroundBlur_3344_7472"/>
</filter>
<radialGradient id="paint0_radial_3344_7472" cx="0" cy="0" r="1" gradientUnits="userSpaceOnUse" gradientTransform="translate(10 45) rotate(90) scale(27)">
<stop stop-color="white"/>
<stop offset="1" stop-color="white" stop-opacity="0"/>
</radialGradient>
<clipPath id="clip0_3344_7472">
<rect x="0.5" width="57" height="57" rx="28.5" fill="white"/>
</clipPath>
</defs>
</svg>
