<svg width="57" height="57" viewBox="0 0 57 57" fill="none" xmlns="http://www.w3.org/2000/svg">
<g clip-path="url(#clip0_1018_8196)">
<rect width="57" height="57" rx="28.5" fill="#FF05AA"/>
<g filter="url(#filter0_f_1018_8196)">
<circle cx="17" cy="45" r="27" fill="white" fill-opacity="0.5"/>
</g>
<g clip-path="url(#clip1_1018_8196)">
<path fill-rule="evenodd" clip-rule="evenodd" d="M28.063 19.4691C28.309 19.2724 28.6108 19.1581 28.9254 19.1425C29.2401 19.1269 29.5517 19.2107 29.816 19.3821L29.937 19.4691L34.249 22.9191C34.4594 23.0873 34.6336 23.2962 34.7613 23.5333C34.889 23.7705 34.9675 24.0309 34.992 24.2991L35 24.4801V36.0001H36V27.5001C36 27.3831 36.041 27.2698 36.1159 27.1799C36.1908 27.09 36.2949 27.0292 36.41 27.0081L36.5 27.0001H37C37.5046 27 37.9906 27.1905 38.3605 27.5336C38.7305 27.8767 38.9572 28.347 38.995 28.8501L39 29.0001V36.9001C38.9999 37.171 38.8998 37.4323 38.719 37.634C38.5382 37.8357 38.2893 37.9636 38.02 37.9931L37.9 38.0001H20.1C19.8289 38.0003 19.5674 37.9003 19.3655 37.7195C19.1636 37.5386 19.0356 37.2896 19.006 37.0201L19 36.9001V29.0001C18.9998 28.4956 19.1904 28.0096 19.5335 27.6396C19.8766 27.2696 20.3468 27.043 20.85 27.0051L21 27.0001H21.5C21.617 27.0001 21.7304 27.0411 21.8203 27.116C21.9102 27.1909 21.9709 27.295 21.992 27.4101L22 27.5001V36.0001H23V24.4801C23 24.2108 23.0544 23.9443 23.1599 23.6965C23.2654 23.4487 23.4198 23.2248 23.614 23.0381L23.751 22.9181L28.063 19.4691ZM29 25.9991C28.4696 25.9991 27.9609 26.2098 27.5858 26.5849C27.2107 26.96 27 27.4687 27 27.9991C27 28.5296 27.2107 29.0383 27.5858 29.4133C27.9609 29.7884 28.4696 29.9991 29 29.9991C29.5304 29.9991 30.0391 29.7884 30.4142 29.4133C30.7893 29.0383 31 28.5296 31 27.9991C31 27.4687 30.7893 26.96 30.4142 26.5849C30.0391 26.2098 29.5304 25.9991 29 25.9991Z" fill="white"/>
</g>
<g filter="url(#filter1_f_1018_8196)">
<rect x="-7.30176" y="-50" width="8" height="67.8758" transform="rotate(32.7288 -7.30176 -50)" fill="#FAFAFA"/>
</g>
</g>
<defs>
<filter id="filter0_f_1018_8196" x="-42" y="-14" width="118" height="118" filterUnits="userSpaceOnUse" color-interpolation-filters="sRGB">
<feFlood flood-opacity="0" result="BackgroundImageFix"/>
<feBlend mode="normal" in="SourceGraphic" in2="BackgroundImageFix" result="shape"/>
<feGaussianBlur stdDeviation="16" result="effect1_foregroundBlur_1018_8196"/>
</filter>
<filter id="filter1_f_1018_8196" x="-56" y="-62" width="67.4277" height="85.4253" filterUnits="userSpaceOnUse" color-interpolation-filters="sRGB">
<feFlood flood-opacity="0" result="BackgroundImageFix"/>
<feBlend mode="normal" in="SourceGraphic" in2="BackgroundImageFix" result="shape"/>
<feGaussianBlur stdDeviation="6" result="effect1_foregroundBlur_1018_8196"/>
</filter>
<clipPath id="clip0_1018_8196">
<rect width="57" height="57" rx="28.5" fill="white"/>
</clipPath>
<clipPath id="clip1_1018_8196">
<rect width="24" height="24" fill="white" transform="translate(17 17)"/>
</clipPath>
</defs>
</svg>
